<svg width="95" height="121" viewBox="0 0 95 121" fill="none" xmlns="http://www.w3.org/2000/svg">
<path d="M43.4065 11.5328L47.5 21.426L51.5935 11.5328L92.5269 3.16406V70.2038C88.3061 89.6073 78.0933 100.217 47.5238 118.505C16.9542 100.217 6.6939 89.6073 2.47314 70.2038V3.16406L43.4065 11.5328Z" stroke="white" stroke-width="4"/>
<circle cx="47.5002" cy="36.5285" r="3.64179" fill="white"/>
<rect x="46.0762" y="39.4863" width="3.01074" height="8.51562" fill="white"/>
<path d="M45.0151 51.2808H50.1484V96.8231C49.4275 99.2595 48.8432 100.371 47.5303 101.86C46.1471 100.047 45.5464 98.9654 45.0151 96.8231V51.2808Z" fill="white"/>
<path d="M36.9844 49.7814L36.9844 45.8231C45.3723 47.2359 50.007 47.2682 58.1793 45.8231L58.1793 49.7814C50.0562 52.5028 45.416 52.5023 36.9844 49.7814Z" fill="white"/>
</svg>
