<svg width="422" height="62" viewBox="0 0 422 62" fill="none" xmlns="http://www.w3.org/2000/svg">
<g opacity="0.1">
<line x1="0.914062" y1="0.558472" x2="0.91406" y2="61.8843" stroke="#101010"/>
<line x1="8.91406" y1="0.558472" x2="8.91406" y2="61.8843" stroke="#101010"/>
<line x1="17.1582" y1="0.558472" x2="17.1582" y2="61.8843" stroke="#101010"/>
<line x1="25.4014" y1="0.558472" x2="25.4014" y2="61.8843" stroke="#101010"/>
<line x1="33.6455" y1="0.558472" x2="33.6455" y2="61.8843" stroke="#101010"/>
<line x1="41.8887" y1="0.558472" x2="41.8887" y2="61.8843" stroke="#101010"/>
<line x1="50.1328" y1="0.558472" x2="50.1328" y2="61.8843" stroke="#101010"/>
<line x1="58.376" y1="0.558472" x2="58.376" y2="61.8843" stroke="#101010"/>
<line x1="66.6191" y1="0.558472" x2="66.6191" y2="61.8843" stroke="#101010"/>
<line x1="74.8633" y1="0.558472" x2="74.8633" y2="61.8843" stroke="#101010"/>
<line x1="83.1074" y1="0.558472" x2="83.1074" y2="61.8843" stroke="#101010"/>
<line x1="91.3506" y1="0.558472" x2="91.3506" y2="61.8843" stroke="#101010"/>
<line x1="99.5938" y1="0.558472" x2="99.5938" y2="61.8843" stroke="#101010"/>
<line x1="107.838" y1="0.558472" x2="107.838" y2="61.8843" stroke="#101010"/>
<line x1="116.082" y1="0.558472" x2="116.082" y2="61.8843" stroke="#101010"/>
<line x1="124.325" y1="0.558472" x2="124.325" y2="61.8843" stroke="#101010"/>
<line x1="132.568" y1="0.558472" x2="132.568" y2="61.8843" stroke="#101010"/>
<line x1="140.812" y1="0.558472" x2="140.812" y2="61.8843" stroke="#101010"/>
<line x1="149.057" y1="0.558472" x2="149.057" y2="61.8843" stroke="#101010"/>
<line x1="157.3" y1="0.558472" x2="157.3" y2="61.8843" stroke="#101010"/>
<line x1="165.543" y1="0.558472" x2="165.543" y2="61.8843" stroke="#101010"/>
<line x1="173.787" y1="0.558472" x2="173.787" y2="61.8843" stroke="#101010"/>
<line x1="182.031" y1="0.558472" x2="182.031" y2="61.8843" stroke="#101010"/>
<line x1="190.274" y1="0.558472" x2="190.274" y2="61.8843" stroke="#101010"/>
<line x1="198.518" y1="0.558472" x2="198.518" y2="61.8843" stroke="#101010"/>
<line x1="206.762" y1="0.558472" x2="206.762" y2="61.8843" stroke="#101010"/>
<line x1="215.006" y1="0.558472" x2="215.006" y2="61.8843" stroke="#101010"/>
<line x1="223.249" y1="0.558472" x2="223.249" y2="61.8843" stroke="#101010"/>
<line x1="231.492" y1="0.558472" x2="231.492" y2="61.8843" stroke="#101010"/>
<line x1="239.736" y1="0.558472" x2="239.736" y2="61.8843" stroke="#101010"/>
<line x1="247.98" y1="0.558472" x2="247.98" y2="61.8843" stroke="#101010"/>
<line x1="256.224" y1="0.558472" x2="256.224" y2="61.8843" stroke="#101010"/>
<line x1="264.467" y1="0.558472" x2="264.467" y2="61.8843" stroke="#101010"/>
<line x1="272.711" y1="0.558472" x2="272.711" y2="61.8843" stroke="#101010"/>
<line x1="280.955" y1="0.558472" x2="280.955" y2="61.8843" stroke="#101010"/>
<line x1="289.198" y1="0.558472" x2="289.198" y2="61.8843" stroke="#101010"/>
<line x1="297.441" y1="0.558472" x2="297.441" y2="61.8843" stroke="#101010"/>
<line x1="305.686" y1="0.558472" x2="305.686" y2="61.8843" stroke="#101010"/>
<line x1="313.93" y1="0.558472" x2="313.93" y2="61.8843" stroke="#101010"/>
<line x1="322.173" y1="0.558472" x2="322.173" y2="61.8843" stroke="#101010"/>
<line x1="330.416" y1="0.558472" x2="330.416" y2="61.8843" stroke="#101010"/>
<line x1="338.66" y1="0.558472" x2="338.66" y2="61.8843" stroke="#101010"/>
<line x1="346.904" y1="0.558472" x2="346.904" y2="61.8843" stroke="#101010"/>
<line x1="355.147" y1="0.558472" x2="355.147" y2="61.8843" stroke="#101010"/>
<line x1="363.391" y1="0.558472" x2="363.391" y2="61.8843" stroke="#101010"/>
<line x1="371.635" y1="0.558472" x2="371.635" y2="61.8843" stroke="#101010"/>
<line x1="379.879" y1="0.558472" x2="379.879" y2="61.8843" stroke="#101010"/>
<line x1="388.122" y1="0.558472" x2="388.122" y2="61.8843" stroke="#101010"/>
<line x1="396.365" y1="0.558472" x2="396.365" y2="61.8843" stroke="#101010"/>
<line x1="404.609" y1="0.558472" x2="404.609" y2="61.8843" stroke="#101010"/>
<line x1="412.854" y1="0.558472" x2="412.854" y2="61.8843" stroke="#101010"/>
<line x1="421.097" y1="0.558472" x2="421.097" y2="61.8843" stroke="#101010"/>
</g>
</svg>
