<svg width="56" height="51" viewBox="0 0 56 51" fill="none" xmlns="http://www.w3.org/2000/svg">
<g clip-path="url(#clip0_303_2887)">
<path fill-rule="evenodd" clip-rule="evenodd" d="M15.1835 31.4492C15.2657 31.387 15.4183 31.3212 15.6474 31.2692C15.8678 31.2193 16.1186 31.191 16.3626 31.1768C16.5213 31.1676 16.6724 31.1646 16.8041 31.1648C16.8051 31.1785 16.8051 31.1785 16.8051 31.1785L16.8052 31.1785L16.8077 31.1783L16.8199 31.1775C16.831 31.1768 16.8482 31.1758 16.8707 31.1746C16.9092 31.1726 16.9631 31.1702 17.0291 31.1682C17.095 31.1702 17.1489 31.1726 17.1874 31.1746C17.2099 31.1758 17.2271 31.1768 17.2382 31.1775L17.2504 31.1783L17.2529 31.1785L17.253 31.1785C17.253 31.1785 17.253 31.1785 17.254 31.1648C17.3857 31.1646 17.5368 31.1676 17.6955 31.1768C17.9395 31.191 18.1903 31.2193 18.4108 31.2692C18.6398 31.3212 18.7924 31.387 18.8746 31.4492C19.8847 32.2139 20.3925 33.0458 20.6036 33.862C20.8167 34.6864 20.7379 35.5382 20.5001 36.3495C20.0205 37.986 18.9245 39.3549 18.5589 39.7589C18.0788 40.2895 18.1733 40.9481 18.3826 41.4048C18.5865 41.8499 18.9655 42.2679 19.3547 42.4378C19.5892 42.5402 21.135 43.2756 22.6556 44.0628C23.4149 44.4559 24.1586 44.8571 24.7242 45.195C25.0081 45.3646 25.2376 45.5126 25.3991 45.6318C25.4803 45.6917 25.5352 45.7376 25.5685 45.7697L25.5732 45.7743C25.6463 45.9927 25.6845 46.3685 25.6955 46.7545C25.7011 46.9479 25.6995 47.1243 25.6965 47.2525C25.695 47.3164 25.6932 47.3679 25.6918 47.4029L25.69 47.4425L25.6896 47.452L25.6894 47.4541L25.6894 47.4543L26.1887 47.4817C26.6879 47.5091 26.6879 47.5091 26.6879 47.509L26.6879 47.5089L26.688 47.5085L26.688 47.5073L26.6882 47.5037L26.6889 47.4907L26.6909 47.4436C26.6926 47.4035 26.6946 47.3461 26.6962 47.2757C26.6995 47.1353 26.7013 46.941 26.6951 46.726C26.6836 46.3218 26.6432 45.7553 26.4868 45.362C26.4303 45.2201 26.3275 45.1125 26.2626 45.0499C26.1854 44.9754 26.0921 44.9003 25.9927 44.8271C25.7931 44.6798 25.5318 44.5126 25.237 44.3365C24.6453 43.983 23.8806 43.5709 23.1153 43.1747C21.5866 42.3833 20.0186 41.6365 19.7547 41.5213C19.6454 41.4736 19.421 41.2705 19.2917 40.9882C19.1676 40.7175 19.1988 40.5422 19.3004 40.4299C19.7097 39.9776 20.9188 38.4762 21.4597 36.6307C21.7322 35.701 21.8425 34.6588 21.5717 33.6116C21.2988 32.5562 20.6498 31.5389 19.4781 30.6519L19.4781 30.6518C19.2299 30.464 18.9162 30.3584 18.6318 30.294C18.3388 30.2276 18.0289 30.1945 17.7535 30.1785C17.4763 30.1624 17.2228 30.163 17.0392 30.1676C17.0358 30.1677 17.0324 30.1678 17.0291 30.1679C17.0257 30.1678 17.0223 30.1677 17.0189 30.1676C16.8353 30.163 16.5818 30.1624 16.3047 30.1785C16.0293 30.1945 15.7193 30.2276 15.4263 30.294C15.1419 30.3584 14.8282 30.464 14.58 30.6518L14.58 30.6519C13.4083 31.5389 12.7593 32.5562 12.4864 33.6116C12.2156 34.6588 12.3259 35.701 12.5984 36.6307C13.1393 38.4762 14.3484 39.9776 14.7577 40.4299C14.8593 40.5422 14.8905 40.7175 14.7665 40.9882C14.6371 41.2705 14.4127 41.4736 14.3034 41.5213C14.0395 41.6365 12.4715 42.3833 10.9428 43.1747C10.1775 43.5709 9.41276 43.983 8.82107 44.3365C8.52635 44.5126 8.26504 44.6798 8.06537 44.8271C7.96602 44.9003 7.87274 44.9754 7.79551 45.0499C7.73057 45.1125 7.62776 45.2201 7.57132 45.362C7.4149 45.7553 7.37451 46.3218 7.36297 46.726C7.35684 46.941 7.3586 47.1353 7.36186 47.2757C7.36349 47.3461 7.36552 47.4035 7.36716 47.4436L7.36924 47.4907L7.36988 47.5037L7.37008 47.5073L7.37014 47.5085L7.37016 47.5089L7.37017 47.509C7.37017 47.5091 7.37017 47.5091 7.86942 47.4817L8.36867 47.4543L8.36866 47.4541L8.36855 47.452L8.36808 47.4425L8.36633 47.4029C8.3649 47.3679 8.36307 47.3164 8.36159 47.2525C8.35861 47.1243 8.35705 46.9479 8.36257 46.7545C8.37359 46.3685 8.41182 45.9927 8.48495 45.7743L8.48965 45.7697C8.52293 45.7376 8.5778 45.6917 8.65903 45.6318C8.82052 45.5126 9.05004 45.3646 9.33394 45.195C9.89951 44.8571 10.6432 44.4559 11.4025 44.0628C12.9231 43.2756 14.4689 42.5402 14.7035 42.4378C15.0926 42.2679 15.4716 41.8499 15.6755 41.4048C15.8848 40.9481 15.9793 40.2895 15.4992 39.7589C15.1336 39.3549 14.0376 37.986 13.558 36.3495C13.3202 35.5382 13.2414 34.6864 13.4545 33.862C13.6656 33.0458 14.1734 32.2139 15.1835 31.4492ZM8.46608 45.7945C8.46603 45.7945 8.46672 45.7936 8.46835 45.7917L8.46608 45.7945ZM25.592 45.7945C25.5921 45.7945 25.5914 45.7936 25.5898 45.7917L25.592 45.7945Z" fill="#101010"/>
<path fill-rule="evenodd" clip-rule="evenodd" d="M44.2958 13.3762C44.3781 13.314 44.5306 13.2482 44.7597 13.1962C44.9801 13.1463 45.2309 13.118 45.4749 13.1038C45.6336 13.0946 45.7847 13.0916 45.9164 13.0918C45.9174 13.1055 45.9174 13.1055 45.9174 13.1055L45.9176 13.1055L45.92 13.1053L45.9322 13.1045C45.9433 13.1038 45.9605 13.1028 45.983 13.1016C46.0215 13.0996 46.0754 13.0972 46.1414 13.0952C46.2073 13.0972 46.2612 13.0996 46.2997 13.1016C46.3222 13.1028 46.3394 13.1038 46.3505 13.1045L46.3627 13.1053L46.3652 13.1055L46.3653 13.1055C46.3653 13.1055 46.3653 13.1055 46.3663 13.0918C46.498 13.0916 46.6491 13.0946 46.8078 13.1038C47.0518 13.118 47.3026 13.1463 47.5231 13.1962C47.7521 13.2482 47.9047 13.314 47.9869 13.3762C48.997 14.1409 49.5048 14.9728 49.7159 15.789C49.929 16.6134 49.8502 17.4652 49.6124 18.2765C49.1328 19.913 48.0368 21.2819 47.6712 21.6859C47.1911 22.2165 47.2856 22.8751 47.4949 23.3318C47.6989 23.7769 48.0778 24.1949 48.467 24.3648C48.7015 24.4672 50.2473 25.2026 51.7679 25.9898C52.5272 26.3829 53.2709 26.7841 53.8365 27.122C54.1204 27.2916 54.3499 27.4396 54.5114 27.5588C54.5926 27.6187 54.6475 27.6647 54.6808 27.6967L54.6855 27.7013C54.7586 27.9197 54.7968 28.2955 54.8078 28.6815C54.8134 28.8749 54.8118 29.0513 54.8088 29.1795C54.8073 29.2434 54.8055 29.2949 54.8041 29.3299L54.8023 29.3695L54.8019 29.379L54.8018 29.3811L54.8017 29.3813L55.301 29.4087C55.8002 29.4361 55.8002 29.4361 55.8002 29.436L55.8003 29.4359L55.8003 29.4355L55.8003 29.4344L55.8005 29.4307L55.8012 29.4177L55.8033 29.3706C55.8049 29.3305 55.8069 29.2731 55.8086 29.2027C55.8118 29.0623 55.8136 28.868 55.8074 28.653C55.7959 28.2488 55.7555 27.6823 55.5991 27.289C55.5427 27.1471 55.4398 27.0395 55.3749 26.9769C55.2977 26.9024 55.2044 26.8274 55.105 26.7541C54.9054 26.6068 54.6441 26.4396 54.3493 26.2635C53.7577 25.91 52.9929 25.4979 52.2276 25.1017C50.699 24.3103 49.1309 23.5635 48.867 23.4483C48.7577 23.4006 48.5333 23.1975 48.404 22.9152C48.2799 22.6445 48.3111 22.4692 48.4127 22.3569C48.822 21.9046 50.0312 20.4032 50.572 18.5577C50.8445 17.628 50.9548 16.5858 50.684 15.5386C50.4111 14.4832 49.7621 13.4659 48.5904 12.5789L48.5904 12.5788C48.3422 12.391 48.0285 12.2854 47.7441 12.221C47.4511 12.1546 47.1412 12.1215 46.8658 12.1055C46.5886 12.0894 46.3351 12.09 46.1515 12.0946C46.1481 12.0947 46.1447 12.0948 46.1414 12.0949C46.138 12.0948 46.1346 12.0947 46.1312 12.0946C45.9476 12.09 45.6942 12.0894 45.417 12.1055C45.1416 12.1215 44.8316 12.1546 44.5386 12.221C44.2542 12.2854 43.9405 12.391 43.6923 12.5788L43.6923 12.5789C42.5206 13.4659 41.8716 14.4832 41.5987 15.5386C41.3279 16.5858 41.4382 17.628 41.7107 18.5577C42.2516 20.4032 43.4607 21.9046 43.87 22.3569C43.9716 22.4692 44.0028 22.6445 43.8788 22.9152C43.7494 23.1975 43.525 23.4006 43.4157 23.4483C43.1518 23.5635 41.5838 24.3103 40.0551 25.1017C39.2898 25.4979 38.5251 25.91 37.9334 26.2635C37.6386 26.4396 37.3773 26.6068 37.1777 26.7541C37.0783 26.8274 36.985 26.9024 36.9078 26.9769C36.8429 27.0395 36.7401 27.1471 36.6836 27.289C36.5272 27.6823 36.4868 28.2488 36.4753 28.653C36.4691 28.868 36.4709 29.0623 36.4742 29.2027C36.4758 29.2731 36.4778 29.3305 36.4795 29.3706L36.4815 29.4177L36.4822 29.4307L36.4824 29.4344L36.4824 29.4355L36.4825 29.4359L36.4825 29.436C36.4825 29.4361 36.4825 29.4361 36.9817 29.4087L37.481 29.3813L37.481 29.3811L37.4809 29.379L37.4804 29.3695L37.4786 29.3299C37.4772 29.2949 37.4754 29.2434 37.4739 29.1795C37.4709 29.0513 37.4694 28.8749 37.4749 28.6815C37.4859 28.2955 37.5241 27.9197 37.5973 27.7013L37.602 27.6967C37.6352 27.6647 37.6901 27.6187 37.7713 27.5588C37.9328 27.4396 38.1623 27.2916 38.4462 27.122C39.0118 26.7841 39.7555 26.3829 40.5148 25.9898C42.0354 25.2026 43.5812 24.4672 43.8158 24.3648C44.2049 24.1949 44.5839 23.7769 44.7879 23.3318C44.9971 22.8751 45.0916 22.2165 44.6115 21.6859C44.2459 21.2819 43.1499 19.913 42.6703 18.2765C42.4325 17.4652 42.3537 16.6134 42.5669 15.789C42.7779 14.9728 43.2858 14.1409 44.2958 13.3762ZM37.5784 27.7215C37.5783 27.7215 37.579 27.7206 37.5807 27.7187L37.5784 27.7215ZM54.7043 27.7215C54.7044 27.7215 54.7037 27.7206 54.7021 27.7187L54.7043 27.7215Z" fill="#101010"/>
<path fill-rule="evenodd" clip-rule="evenodd" d="M9.07758 13.3762C9.15979 13.314 9.31234 13.2482 9.54139 13.1962C9.76184 13.1463 10.0126 13.118 10.2566 13.1038C10.4153 13.0946 10.5665 13.0916 10.6982 13.0918C10.6992 13.1055 10.6991 13.1055 10.6991 13.1055L10.6993 13.1055L10.7018 13.1053L10.7139 13.1045C10.7251 13.1038 10.7422 13.1028 10.7648 13.1016C10.8032 13.0996 10.8571 13.0972 10.9231 13.0952C10.989 13.0972 11.0429 13.0996 11.0814 13.1016C11.104 13.1028 11.1211 13.1038 11.1323 13.1045L11.1444 13.1053L11.1469 13.1055L11.1471 13.1055C11.147 13.1055 11.147 13.1055 11.148 13.0918C11.2797 13.0916 11.4309 13.0946 11.5896 13.1038C11.8336 13.118 12.0843 13.1463 12.3048 13.1962C12.5339 13.2482 12.6864 13.314 12.7686 13.3762C13.7787 14.1409 14.2866 14.9728 14.4976 15.789C14.7108 16.6134 14.6319 17.4652 14.3941 18.2765C13.9145 19.913 12.8186 21.2819 12.453 21.6859C11.9728 22.2165 12.0673 22.8751 12.2766 23.3318C12.4806 23.7769 12.8596 24.1949 13.2487 24.3648C13.4833 24.4672 15.0291 25.2026 16.5496 25.9898C17.309 26.3829 18.0526 26.7841 18.6182 27.122C18.9021 27.2916 19.1316 27.4396 19.2931 27.5588C19.3743 27.6187 19.4292 27.6647 19.4625 27.6967L19.4672 27.7013C19.5403 27.9197 19.5786 28.2955 19.5896 28.6815C19.5951 28.8749 19.5935 29.0513 19.5906 29.1795C19.5891 29.2434 19.5873 29.2949 19.5858 29.3299L19.5841 29.3695L19.5836 29.379L19.5835 29.3811L19.5835 29.3813L20.0827 29.4087C20.582 29.4361 20.582 29.4361 20.582 29.436L20.582 29.4359L20.582 29.4355L20.5821 29.4344L20.5823 29.4307L20.5829 29.4177L20.585 29.3706C20.5866 29.3305 20.5887 29.2731 20.5903 29.2027C20.5936 29.0623 20.5953 28.868 20.5892 28.653C20.5776 28.2488 20.5373 27.6823 20.3808 27.289C20.3244 27.1471 20.2216 27.0395 20.1566 26.9769C20.0794 26.9024 19.9861 26.8274 19.8868 26.7541C19.6871 26.6068 19.4258 26.4396 19.1311 26.2635C18.5394 25.91 17.7746 25.4979 17.0094 25.1017C15.4807 24.3103 13.9126 23.5635 13.6488 23.4483C13.5395 23.4006 13.315 23.1975 13.1857 22.9152C13.0616 22.6445 13.0928 22.4692 13.1945 22.3569C13.6037 21.9046 14.8129 20.4032 15.3538 18.5577C15.6263 17.628 15.7365 16.5858 15.4658 15.5386C15.1929 14.4832 14.5438 13.4659 13.3721 12.5789L13.3721 12.5788C13.1239 12.391 12.8103 12.2854 12.5259 12.221C12.2328 12.1546 11.9229 12.1215 11.6475 12.1055C11.3703 12.0894 11.1169 12.09 10.9332 12.0946C10.9298 12.0947 10.9264 12.0948 10.9231 12.0949C10.9197 12.0948 10.9164 12.0947 10.913 12.0946C10.7293 12.09 10.4759 12.0894 10.1987 12.1055C9.92329 12.1215 9.61335 12.1546 9.32034 12.221C9.03594 12.2854 8.72227 12.391 8.47409 12.5788L8.47404 12.5789C7.30235 13.4659 6.65331 14.4832 6.38043 15.5386C6.10967 16.5858 6.21993 17.628 6.49241 18.5577C7.0333 20.4032 8.24246 21.9046 8.65172 22.3569C8.75337 22.4692 8.78455 22.6445 8.66049 22.9152C8.53114 23.1975 8.30673 23.4006 8.19743 23.4483C7.93357 23.5635 6.3655 24.3103 4.83683 25.1017C4.07157 25.4979 3.3068 25.91 2.71512 26.2635C2.42039 26.4396 2.15908 26.6068 1.95941 26.7541C1.86007 26.8274 1.76678 26.9024 1.68955 26.9769C1.62461 27.0395 1.5218 27.1471 1.46536 27.289C1.30894 27.6823 1.26856 28.2488 1.25702 28.653C1.25088 28.868 1.25264 29.0623 1.2559 29.2027C1.25754 29.2731 1.25956 29.3305 1.2612 29.3706L1.26328 29.4177L1.26393 29.4307L1.26412 29.4344L1.26418 29.4355L1.2642 29.4359L1.26421 29.436C1.26421 29.4361 1.26422 29.4361 1.76346 29.4087L2.26271 29.3813L2.2627 29.3811L2.26259 29.379L2.26212 29.3695L2.26037 29.3299C2.25894 29.2949 2.25712 29.2434 2.25563 29.1795C2.25265 29.0513 2.25109 28.8749 2.25661 28.6815C2.26763 28.2955 2.30587 27.9197 2.37899 27.7013L2.38369 27.6967C2.41697 27.6647 2.47184 27.6187 2.55308 27.5588C2.71457 27.4396 2.94409 27.2916 3.22799 27.122C3.79356 26.7841 4.53722 26.3829 5.29657 25.9898C6.81712 25.2026 8.36294 24.4672 8.5975 24.3648C8.98663 24.1949 9.3656 23.7769 9.56959 23.3318C9.77888 22.8751 9.87336 22.2165 9.39323 21.6859C9.02764 21.2819 7.93167 19.913 7.45205 18.2765C7.21427 17.4652 7.13543 16.6134 7.34859 15.789C7.55962 14.9728 8.06749 14.1409 9.07758 13.3762ZM2.36013 27.7215C2.36007 27.7215 2.36077 27.7206 2.36239 27.7187L2.36013 27.7215ZM19.4861 27.7215C19.4861 27.7215 19.4854 27.7206 19.4838 27.7187L19.4861 27.7215Z" fill="#101010"/>
<path fill-rule="evenodd" clip-rule="evenodd" d="M26.7597 1.65305C26.8419 1.59083 26.9945 1.52501 27.2235 1.47309C27.444 1.42312 27.6947 1.39482 27.9388 1.38066C28.0975 1.37145 28.2486 1.36847 28.3803 1.36866C28.3813 1.38236 28.3813 1.38237 28.3813 1.38237L28.3814 1.38235L28.3839 1.38218L28.396 1.38138C28.4072 1.38067 28.4244 1.37963 28.4469 1.37846C28.4854 1.37645 28.5393 1.37403 28.6052 1.3721C28.6712 1.37403 28.7251 1.37645 28.7636 1.37846C28.7861 1.37963 28.8033 1.38067 28.8144 1.38138L28.8265 1.38218L28.829 1.38235L28.8292 1.38237C28.8292 1.38237 28.8292 1.38236 28.8302 1.36866C28.9618 1.36847 29.113 1.37145 29.2717 1.38066C29.5157 1.39482 29.7665 1.42312 29.9869 1.47309C30.216 1.52501 30.3685 1.59083 30.4507 1.65305C31.4608 2.41772 31.9687 3.24964 32.1797 4.06582C32.3929 4.89026 32.314 5.74202 32.0763 6.55332C31.5966 8.18981 30.5007 9.55874 30.1351 9.96277C29.655 10.4934 29.7494 11.1519 29.9587 11.6086C30.1627 12.0538 30.5417 12.4718 30.9308 12.6416C31.1654 12.744 32.7112 13.4795 34.2317 14.2666C34.9911 14.6597 35.7348 15.061 36.3003 15.3988C36.5842 15.5685 36.8138 15.7165 36.9752 15.8356C37.0565 15.8956 37.1113 15.9415 37.1446 15.9736L37.1493 15.9782C37.2225 16.1965 37.2607 16.5724 37.2717 16.9584C37.2772 17.1518 37.2757 17.3282 37.2727 17.4564C37.2712 17.5203 37.2694 17.5717 37.268 17.6067L37.2662 17.6463L37.2657 17.6559L37.2656 17.6579L37.2656 17.6582L37.7649 17.6855C38.2641 17.713 38.2641 17.7129 38.2641 17.7129L38.2641 17.7127L38.2641 17.7123L38.2642 17.7112L38.2644 17.7075L38.265 17.6945L38.2671 17.6475C38.2688 17.6073 38.2708 17.55 38.2724 17.4796C38.2757 17.3392 38.2774 17.1449 38.2713 16.9299C38.2598 16.5256 38.2194 15.9591 38.063 15.5659C38.0065 15.424 37.9037 15.3164 37.8388 15.2538C37.7615 15.1793 37.6683 15.1042 37.5689 15.0309C37.3692 14.8836 37.1079 14.7165 36.8132 14.5404C36.2215 14.1869 35.4567 13.7748 34.6915 13.3786C33.1628 12.5872 31.5948 11.8403 31.3309 11.7252C31.2216 11.6774 30.9972 11.4743 30.8678 11.192C30.7438 10.9213 30.775 10.7461 30.8766 10.6337C31.2859 10.1814 32.495 8.68009 33.0359 6.83457C33.3084 5.90486 33.4186 4.86267 33.1479 3.8155C32.875 2.76008 32.226 1.74271 31.0543 0.855713L31.0542 0.85568C30.806 0.667838 30.4924 0.562292 30.208 0.497829C29.915 0.431414 29.605 0.398318 29.3296 0.382335C29.0524 0.366248 28.799 0.366899 28.6153 0.37146C28.612 0.371545 28.6086 0.37163 28.6052 0.371717C28.6019 0.37163 28.5985 0.371545 28.5951 0.37146C28.4115 0.366899 28.158 0.366248 27.8808 0.382335C27.6054 0.398318 27.2955 0.431414 27.0025 0.497829C26.7181 0.562292 26.4044 0.667838 26.1562 0.85568L26.1562 0.855713C24.9845 1.74271 24.3354 2.76008 24.0626 3.8155C23.7918 4.86267 23.9021 5.90486 24.1745 6.83457C24.7154 8.68009 25.9246 10.1814 26.3339 10.6337C26.4355 10.7461 26.4667 10.9213 26.3426 11.192C26.2133 11.4743 25.9889 11.6774 25.8796 11.7252C25.6157 11.8403 24.0476 12.5872 22.519 13.3786C21.7537 13.7748 20.9889 14.1869 20.3972 14.5404C20.1025 14.7165 19.8412 14.8836 19.6415 15.0309C19.5422 15.1042 19.4489 15.1793 19.3717 15.2538C19.3067 15.3164 19.2039 15.424 19.1475 15.5659C18.9911 15.9591 18.9507 16.5256 18.9391 16.9299C18.933 17.1449 18.9348 17.3392 18.938 17.4796C18.9397 17.55 18.9417 17.6073 18.9433 17.6475L18.9454 17.6945L18.9461 17.7075L18.9462 17.7112L18.9463 17.7123L18.9463 17.7127L18.9463 17.7129C18.9463 17.7129 18.9463 17.713 19.4456 17.6855L19.9448 17.6582L19.9448 17.6579L19.9447 17.6559L19.9442 17.6463L19.9425 17.6067C19.9411 17.5717 19.9392 17.5203 19.9378 17.4564C19.9348 17.3282 19.9332 17.1518 19.9387 16.9584C19.9498 16.5724 19.988 16.1965 20.0611 15.9782L20.0658 15.9736C20.0991 15.9415 20.154 15.8956 20.2352 15.8356C20.3967 15.7165 20.6262 15.5685 20.9101 15.3988C21.4757 15.061 22.2194 14.6597 22.9787 14.2666C24.4992 13.4795 26.0451 12.744 26.2796 12.6416C26.6688 12.4718 27.0477 12.0538 27.2517 11.6086C27.461 11.1519 27.5555 10.4934 27.0754 9.96277C26.7098 9.55874 25.6138 8.18981 25.1342 6.55332C24.8964 5.74202 24.8176 4.89026 25.0307 4.06582C25.2417 3.24964 25.7496 2.41772 26.7597 1.65305ZM20.0423 15.9984C20.0422 15.9984 20.0429 15.9975 20.0445 15.9956L20.0423 15.9984ZM37.1682 15.9984C37.1683 15.9984 37.1676 15.9975 37.1659 15.9956L37.1682 15.9984Z" fill="#101010"/>
<path d="M41.7045 37.4408H48.8545C49.4878 37.4408 49.8045 37.7741 49.8045 38.4408V40.5408C49.8045 41.1741 49.4878 41.4908 48.8545 41.4908H41.7045V48.7408C41.7045 49.4074 41.3712 49.7408 40.7045 49.7408H38.4545C37.8212 49.7408 37.5045 49.4074 37.5045 48.7408V41.4908H30.3045C29.6712 41.4908 29.3545 41.1741 29.3545 40.5408V38.4408C29.3545 37.7741 29.6712 37.4408 30.3045 37.4408H37.5045V30.2408C37.5045 29.5741 37.8212 29.2408 38.4545 29.2408H40.7045C41.3712 29.2408 41.7045 29.5741 41.7045 30.2408V37.4408Z" fill="#101010"/>
</g>
<defs>
<clipPath id="clip0_303_2887">
<rect width="55" height="50" fill="white" transform="translate(0.984863 0.0205078)"/>
</clipPath>
</defs>
</svg>
