<svg width="804" height="288" viewBox="0 0 804 288" fill="none" xmlns="http://www.w3.org/2000/svg">
<g opacity="0.4">
<line opacity="0.1" x1="1.45801" y1="-5.30969" x2="1.45799" y2="297.717" stroke="white"/>
<line opacity="0.1" x1="3.86426" y1="-5.30969" x2="3.86424" y2="297.717" stroke="white"/>
<line opacity="0.1" x1="6.27051" y1="-5.30969" x2="6.27049" y2="297.717" stroke="white"/>
<line opacity="0.1" x1="8.67627" y1="-5.30969" x2="8.67626" y2="297.717" stroke="white"/>
<line opacity="0.1" x1="11.0825" y1="-5.30969" x2="11.0825" y2="297.717" stroke="white"/>
<line opacity="0.1" x1="13.4888" y1="-5.30969" x2="13.4888" y2="297.717" stroke="white"/>
<line opacity="0.1" x1="15.895" y1="-5.30969" x2="15.895" y2="297.717" stroke="white"/>
<line opacity="0.1" x1="18.3013" y1="-5.30969" x2="18.3013" y2="297.717" stroke="white"/>
<line opacity="0.1" x1="20.7075" y1="-5.30969" x2="20.7075" y2="297.717" stroke="white"/>
<line opacity="0.1" x1="23.1138" y1="-5.30969" x2="23.1138" y2="297.717" stroke="white"/>
<line opacity="0.1" x1="25.52" y1="-5.30969" x2="25.52" y2="297.717" stroke="white"/>
<line opacity="0.1" x1="27.9263" y1="-5.30969" x2="27.9263" y2="297.717" stroke="white"/>
<line opacity="0.1" x1="30.3325" y1="-5.30969" x2="30.3325" y2="297.717" stroke="white"/>
<line opacity="0.1" x1="32.7388" y1="-5.30969" x2="32.7388" y2="297.717" stroke="white"/>
<line opacity="0.1" x1="35.145" y1="-5.30969" x2="35.145" y2="297.717" stroke="white"/>
<line opacity="0.1" x1="37.5513" y1="-5.30969" x2="37.5513" y2="297.717" stroke="white"/>
<line opacity="0.1" x1="39.9575" y1="-5.30969" x2="39.9575" y2="297.717" stroke="white"/>
<line opacity="0.1" x1="42.3638" y1="-5.30969" x2="42.3638" y2="297.717" stroke="white"/>
<line opacity="0.1" x1="44.77" y1="-5.30969" x2="44.77" y2="297.717" stroke="white"/>
<line opacity="0.1" x1="47.1763" y1="-5.30969" x2="47.1763" y2="297.717" stroke="white"/>
<line opacity="0.1" x1="49.5825" y1="-5.30969" x2="49.5825" y2="297.717" stroke="white"/>
<line opacity="0.1" x1="51.9888" y1="-5.30969" x2="51.9888" y2="297.717" stroke="white"/>
<line opacity="0.1" x1="54.395" y1="-5.30969" x2="54.395" y2="297.717" stroke="white"/>
<line opacity="0.1" x1="56.8013" y1="-5.30969" x2="56.8013" y2="297.717" stroke="white"/>
<line opacity="0.1" x1="59.2075" y1="-5.30969" x2="59.2075" y2="297.717" stroke="white"/>
<line opacity="0.1" x1="61.6138" y1="-5.30969" x2="61.6138" y2="297.717" stroke="white"/>
<line opacity="0.1" x1="64.02" y1="-5.30969" x2="64.02" y2="297.717" stroke="white"/>
<line opacity="0.1" x1="66.4263" y1="-5.30969" x2="66.4263" y2="297.717" stroke="white"/>
<line opacity="0.1" x1="68.8325" y1="-5.30969" x2="68.8325" y2="297.717" stroke="white"/>
<line opacity="0.1" x1="71.2388" y1="-5.30969" x2="71.2388" y2="297.717" stroke="white"/>
<line opacity="0.1" x1="73.645" y1="-5.30969" x2="73.645" y2="297.717" stroke="white"/>
<line opacity="0.1" x1="76.0513" y1="-5.30969" x2="76.0513" y2="297.717" stroke="white"/>
<line opacity="0.1" x1="78.4575" y1="-5.30969" x2="78.4575" y2="297.717" stroke="white"/>
<line opacity="0.1" x1="80.8638" y1="-5.30969" x2="80.8638" y2="297.717" stroke="white"/>
<line opacity="0.1" x1="83.27" y1="-5.30969" x2="83.27" y2="297.717" stroke="white"/>
<line opacity="0.1" x1="85.6763" y1="-5.30969" x2="85.6763" y2="297.717" stroke="white"/>
<line opacity="0.1" x1="88.0825" y1="-5.30969" x2="88.0825" y2="297.717" stroke="white"/>
<line opacity="0.1" x1="90.4888" y1="-5.30969" x2="90.4888" y2="297.717" stroke="white"/>
<line opacity="0.1" x1="92.895" y1="-5.30969" x2="92.895" y2="297.717" stroke="white"/>
<line opacity="0.1" x1="95.3013" y1="-5.30969" x2="95.3013" y2="297.717" stroke="white"/>
<line opacity="0.1" x1="97.7075" y1="-5.30969" x2="97.7075" y2="297.717" stroke="white"/>
<line opacity="0.1" x1="100.114" y1="-5.30969" x2="100.114" y2="297.717" stroke="white"/>
<line opacity="0.1" x1="102.52" y1="-5.30969" x2="102.52" y2="297.717" stroke="white"/>
<line opacity="0.1" x1="104.926" y1="-5.30969" x2="104.926" y2="297.717" stroke="white"/>
<line opacity="0.1" x1="107.333" y1="-5.30969" x2="107.333" y2="297.717" stroke="white"/>
<line opacity="0.1" x1="109.739" y1="-5.30969" x2="109.739" y2="297.717" stroke="white"/>
<line opacity="0.1" x1="112.145" y1="-5.30969" x2="112.145" y2="297.717" stroke="white"/>
<line opacity="0.1" x1="114.551" y1="-5.30969" x2="114.551" y2="297.717" stroke="white"/>
<line opacity="0.1" x1="116.958" y1="-5.30969" x2="116.958" y2="297.717" stroke="white"/>
<line opacity="0.1" x1="119.364" y1="-5.30969" x2="119.364" y2="297.717" stroke="white"/>
<line opacity="0.1" x1="121.77" y1="-5.30969" x2="121.77" y2="297.717" stroke="white"/>
<line opacity="0.1" x1="124.176" y1="-5.30969" x2="124.176" y2="297.717" stroke="white"/>
<line opacity="0.1" x1="126.583" y1="-5.30969" x2="126.583" y2="297.717" stroke="white"/>
<line opacity="0.1" x1="128.989" y1="-5.30969" x2="128.989" y2="297.717" stroke="white"/>
<line opacity="0.1" x1="131.395" y1="-5.30969" x2="131.395" y2="297.717" stroke="white"/>
<line opacity="0.1" x1="133.801" y1="-5.30969" x2="133.801" y2="297.717" stroke="white"/>
<line opacity="0.1" x1="136.208" y1="-5.30969" x2="136.208" y2="297.717" stroke="white"/>
<line opacity="0.1" x1="138.614" y1="-5.30969" x2="138.614" y2="297.717" stroke="white"/>
<line opacity="0.1" x1="141.02" y1="-5.30969" x2="141.02" y2="297.717" stroke="white"/>
<line opacity="0.1" x1="143.426" y1="-5.30969" x2="143.426" y2="297.717" stroke="white"/>
<line opacity="0.1" x1="145.833" y1="-5.30969" x2="145.833" y2="297.717" stroke="white"/>
<line opacity="0.1" x1="148.239" y1="-5.30969" x2="148.239" y2="297.717" stroke="white"/>
<line opacity="0.1" x1="150.645" y1="-5.30969" x2="150.645" y2="297.717" stroke="white"/>
<line opacity="0.1" x1="153.051" y1="-5.30969" x2="153.051" y2="297.717" stroke="white"/>
<line opacity="0.1" x1="155.458" y1="-5.30969" x2="155.458" y2="297.717" stroke="white"/>
<line opacity="0.1" x1="157.864" y1="-5.30969" x2="157.864" y2="297.717" stroke="white"/>
<line opacity="0.1" x1="160.27" y1="-5.30969" x2="160.27" y2="297.717" stroke="white"/>
<line opacity="0.1" x1="162.676" y1="-5.30969" x2="162.676" y2="297.717" stroke="white"/>
<line opacity="0.1" x1="165.083" y1="-5.30969" x2="165.083" y2="297.717" stroke="white"/>
<line opacity="0.1" x1="167.489" y1="-5.30969" x2="167.489" y2="297.717" stroke="white"/>
<line opacity="0.1" x1="169.895" y1="-5.30969" x2="169.895" y2="297.717" stroke="white"/>
<line opacity="0.1" x1="172.301" y1="-5.30969" x2="172.301" y2="297.717" stroke="white"/>
<line opacity="0.1" x1="174.708" y1="-5.30969" x2="174.708" y2="297.717" stroke="white"/>
<line opacity="0.1" x1="177.114" y1="-5.30969" x2="177.114" y2="297.717" stroke="white"/>
<line opacity="0.1" x1="179.52" y1="-5.30969" x2="179.52" y2="297.717" stroke="white"/>
<line opacity="0.1" x1="181.926" y1="-5.30969" x2="181.926" y2="297.717" stroke="white"/>
<line opacity="0.1" x1="184.333" y1="-5.30969" x2="184.333" y2="297.717" stroke="white"/>
<line opacity="0.1" x1="186.739" y1="-5.30969" x2="186.739" y2="297.717" stroke="white"/>
<line opacity="0.1" x1="189.145" y1="-5.30969" x2="189.145" y2="297.717" stroke="white"/>
<line opacity="0.1" x1="191.551" y1="-5.30969" x2="191.551" y2="297.717" stroke="white"/>
<line opacity="0.1" x1="193.958" y1="-5.30969" x2="193.958" y2="297.717" stroke="white"/>
<line opacity="0.1" x1="196.364" y1="-5.30969" x2="196.364" y2="297.717" stroke="white"/>
<line opacity="0.1" x1="198.77" y1="-5.30969" x2="198.77" y2="297.717" stroke="white"/>
<line opacity="0.1" x1="201.176" y1="-5.30969" x2="201.176" y2="297.717" stroke="white"/>
<line opacity="0.1" x1="203.583" y1="-5.30969" x2="203.583" y2="297.717" stroke="white"/>
<line opacity="0.1" x1="205.989" y1="-5.30969" x2="205.989" y2="297.717" stroke="white"/>
<line opacity="0.1" x1="208.395" y1="-5.30969" x2="208.395" y2="297.717" stroke="white"/>
<line opacity="0.1" x1="210.801" y1="-5.30969" x2="210.801" y2="297.717" stroke="white"/>
<line opacity="0.1" x1="213.208" y1="-5.30969" x2="213.208" y2="297.717" stroke="white"/>
<line opacity="0.1" x1="215.614" y1="-5.30969" x2="215.614" y2="297.717" stroke="white"/>
<line opacity="0.1" x1="218.02" y1="-5.30969" x2="218.02" y2="297.717" stroke="white"/>
<line opacity="0.1" x1="220.426" y1="-5.30969" x2="220.426" y2="297.717" stroke="white"/>
<line opacity="0.1" x1="222.833" y1="-5.30969" x2="222.833" y2="297.717" stroke="white"/>
<line opacity="0.1" x1="225.239" y1="-5.30969" x2="225.239" y2="297.717" stroke="white"/>
<line opacity="0.1" x1="227.645" y1="-5.30969" x2="227.645" y2="297.717" stroke="white"/>
<line opacity="0.1" x1="230.051" y1="-5.30969" x2="230.051" y2="297.717" stroke="white"/>
<line opacity="0.1" x1="232.458" y1="-5.30969" x2="232.458" y2="297.717" stroke="white"/>
<line opacity="0.1" x1="234.864" y1="-5.30969" x2="234.864" y2="297.717" stroke="white"/>
<line opacity="0.1" x1="237.27" y1="-5.30969" x2="237.27" y2="297.717" stroke="white"/>
<line opacity="0.1" x1="239.676" y1="-5.30969" x2="239.676" y2="297.717" stroke="white"/>
<line opacity="0.1" x1="242.083" y1="-5.30969" x2="242.083" y2="297.717" stroke="white"/>
<line opacity="0.1" x1="244.489" y1="-5.30969" x2="244.489" y2="297.717" stroke="white"/>
<line opacity="0.1" x1="246.895" y1="-5.30969" x2="246.895" y2="297.717" stroke="white"/>
<line opacity="0.1" x1="249.301" y1="-5.30969" x2="249.301" y2="297.717" stroke="white"/>
<line opacity="0.1" x1="251.708" y1="-5.30969" x2="251.708" y2="297.717" stroke="white"/>
<line opacity="0.1" x1="254.114" y1="-5.30969" x2="254.114" y2="297.717" stroke="white"/>
<line opacity="0.1" x1="256.52" y1="-5.30969" x2="256.52" y2="297.717" stroke="white"/>
<line opacity="0.1" x1="258.926" y1="-5.30969" x2="258.926" y2="297.717" stroke="white"/>
<line opacity="0.1" x1="261.333" y1="-5.30969" x2="261.333" y2="297.717" stroke="white"/>
<line opacity="0.1" x1="263.739" y1="-5.30969" x2="263.739" y2="297.717" stroke="white"/>
<line opacity="0.1" x1="266.145" y1="-5.30969" x2="266.145" y2="297.717" stroke="white"/>
<line opacity="0.1" x1="268.551" y1="-5.30969" x2="268.551" y2="297.717" stroke="white"/>
<line opacity="0.1" x1="270.958" y1="-5.30969" x2="270.958" y2="297.717" stroke="white"/>
<line opacity="0.1" x1="273.364" y1="-5.30969" x2="273.364" y2="297.717" stroke="white"/>
<line opacity="0.1" x1="275.77" y1="-5.30969" x2="275.77" y2="297.717" stroke="white"/>
<line opacity="0.1" x1="278.176" y1="-5.30969" x2="278.176" y2="297.717" stroke="white"/>
<line opacity="0.1" x1="280.583" y1="-5.30969" x2="280.583" y2="297.717" stroke="white"/>
<line opacity="0.1" x1="282.989" y1="-5.30969" x2="282.989" y2="297.717" stroke="white"/>
<line opacity="0.1" x1="285.395" y1="-5.30969" x2="285.395" y2="297.717" stroke="white"/>
<line opacity="0.1" x1="287.801" y1="-5.30969" x2="287.801" y2="297.717" stroke="white"/>
<line opacity="0.1" x1="290.208" y1="-5.30969" x2="290.208" y2="297.717" stroke="white"/>
<line opacity="0.1" x1="292.614" y1="-5.30969" x2="292.614" y2="297.717" stroke="white"/>
<line opacity="0.1" x1="295.02" y1="-5.30969" x2="295.02" y2="297.717" stroke="white"/>
<line opacity="0.1" x1="297.426" y1="-5.30969" x2="297.426" y2="297.717" stroke="white"/>
<line opacity="0.1" x1="299.833" y1="-5.30969" x2="299.833" y2="297.717" stroke="white"/>
<line opacity="0.1" x1="302.239" y1="-5.30969" x2="302.239" y2="297.717" stroke="white"/>
<line opacity="0.1" x1="304.645" y1="-5.30969" x2="304.645" y2="297.717" stroke="white"/>
<line opacity="0.1" x1="307.051" y1="-5.30969" x2="307.051" y2="297.717" stroke="white"/>
<line opacity="0.1" x1="309.458" y1="-5.30969" x2="309.458" y2="297.717" stroke="white"/>
<line opacity="0.1" x1="311.864" y1="-5.30969" x2="311.864" y2="297.717" stroke="white"/>
<line opacity="0.1" x1="314.27" y1="-5.30969" x2="314.27" y2="297.717" stroke="white"/>
<line opacity="0.1" x1="316.676" y1="-5.30969" x2="316.676" y2="297.717" stroke="white"/>
<line opacity="0.1" x1="319.083" y1="-5.30969" x2="319.083" y2="297.717" stroke="white"/>
<line opacity="0.1" x1="321.489" y1="-5.30969" x2="321.489" y2="297.717" stroke="white"/>
<line opacity="0.1" x1="323.895" y1="-5.30969" x2="323.895" y2="297.717" stroke="white"/>
<line opacity="0.1" x1="326.301" y1="-5.30969" x2="326.301" y2="297.717" stroke="white"/>
<line opacity="0.1" x1="328.708" y1="-5.30969" x2="328.708" y2="297.717" stroke="white"/>
<line opacity="0.1" x1="331.114" y1="-5.30969" x2="331.114" y2="297.717" stroke="white"/>
<line opacity="0.1" x1="333.52" y1="-5.30969" x2="333.52" y2="297.717" stroke="white"/>
<line opacity="0.1" x1="335.926" y1="-5.30969" x2="335.926" y2="297.717" stroke="white"/>
<line opacity="0.1" x1="338.333" y1="-5.30969" x2="338.333" y2="297.717" stroke="white"/>
<line opacity="0.1" x1="340.739" y1="-5.30969" x2="340.739" y2="297.717" stroke="white"/>
<line opacity="0.1" x1="343.145" y1="-5.30969" x2="343.145" y2="297.717" stroke="white"/>
<line opacity="0.1" x1="345.551" y1="-5.30969" x2="345.551" y2="297.717" stroke="white"/>
<line opacity="0.1" x1="347.958" y1="-5.30969" x2="347.958" y2="297.717" stroke="white"/>
<line opacity="0.1" x1="350.364" y1="-5.30969" x2="350.364" y2="297.717" stroke="white"/>
<line opacity="0.1" x1="352.77" y1="-5.30969" x2="352.77" y2="297.717" stroke="white"/>
<line opacity="0.1" x1="355.176" y1="-5.30969" x2="355.176" y2="297.717" stroke="white"/>
<line opacity="0.1" x1="357.583" y1="-5.30969" x2="357.583" y2="297.717" stroke="white"/>
<line opacity="0.1" x1="359.989" y1="-5.30969" x2="359.989" y2="297.717" stroke="white"/>
<line opacity="0.1" x1="362.395" y1="-5.30969" x2="362.395" y2="297.717" stroke="white"/>
<line opacity="0.1" x1="364.801" y1="-5.30969" x2="364.801" y2="297.717" stroke="white"/>
<line opacity="0.1" x1="367.208" y1="-5.30969" x2="367.208" y2="297.717" stroke="white"/>
<line opacity="0.1" x1="369.614" y1="-5.30969" x2="369.614" y2="297.717" stroke="white"/>
<line opacity="0.1" x1="372.02" y1="-5.30969" x2="372.02" y2="297.717" stroke="white"/>
<line opacity="0.1" x1="374.426" y1="-5.30969" x2="374.426" y2="297.717" stroke="white"/>
<line opacity="0.1" x1="376.833" y1="-5.30969" x2="376.833" y2="297.717" stroke="white"/>
<line opacity="0.1" x1="379.239" y1="-5.30969" x2="379.239" y2="297.717" stroke="white"/>
<line opacity="0.1" x1="381.645" y1="-5.30969" x2="381.645" y2="297.717" stroke="white"/>
<line opacity="0.1" x1="384.051" y1="-5.30969" x2="384.051" y2="297.717" stroke="white"/>
<line opacity="0.1" x1="386.458" y1="-5.30969" x2="386.458" y2="297.717" stroke="white"/>
<line opacity="0.1" x1="388.864" y1="-5.30969" x2="388.864" y2="297.717" stroke="white"/>
<line opacity="0.1" x1="391.27" y1="-5.30969" x2="391.27" y2="297.717" stroke="white"/>
<line opacity="0.1" x1="393.676" y1="-5.30969" x2="393.676" y2="297.717" stroke="white"/>
<line opacity="0.1" x1="396.083" y1="-5.30969" x2="396.083" y2="297.717" stroke="white"/>
<line opacity="0.1" x1="398.489" y1="-5.30969" x2="398.489" y2="297.717" stroke="white"/>
<line opacity="0.1" x1="400.895" y1="-5.30969" x2="400.895" y2="297.717" stroke="white"/>
<line opacity="0.1" x1="403.301" y1="-5.30969" x2="403.301" y2="297.717" stroke="white"/>
<line opacity="0.1" x1="405.708" y1="-5.30969" x2="405.708" y2="297.717" stroke="white"/>
<line opacity="0.1" x1="408.114" y1="-5.30969" x2="408.114" y2="297.717" stroke="white"/>
<line opacity="0.1" x1="410.52" y1="-5.30969" x2="410.52" y2="297.717" stroke="white"/>
<line opacity="0.1" x1="412.926" y1="-5.30969" x2="412.926" y2="297.717" stroke="white"/>
<line opacity="0.1" x1="415.333" y1="-5.30969" x2="415.333" y2="297.717" stroke="white"/>
<line opacity="0.1" x1="417.739" y1="-5.30969" x2="417.739" y2="297.717" stroke="white"/>
<line opacity="0.1" x1="420.145" y1="-5.30969" x2="420.145" y2="297.717" stroke="white"/>
<line opacity="0.1" x1="422.551" y1="-5.30969" x2="422.551" y2="297.717" stroke="white"/>
<line opacity="0.1" x1="424.958" y1="-5.30969" x2="424.958" y2="297.717" stroke="white"/>
<line opacity="0.1" x1="427.364" y1="-5.30969" x2="427.364" y2="297.717" stroke="white"/>
<line opacity="0.1" x1="429.77" y1="-5.30969" x2="429.77" y2="297.717" stroke="white"/>
<line opacity="0.1" x1="432.175" y1="-5.30969" x2="432.175" y2="297.717" stroke="white"/>
<line opacity="0.1" x1="434.581" y1="-5.30969" x2="434.581" y2="297.717" stroke="white"/>
<line opacity="0.1" x1="436.987" y1="-5.30969" x2="436.987" y2="297.717" stroke="white"/>
<line opacity="0.1" x1="439.393" y1="-5.30969" x2="439.393" y2="297.717" stroke="white"/>
<line opacity="0.1" x1="441.798" y1="-5.30969" x2="441.798" y2="297.717" stroke="white"/>
<line opacity="0.1" x1="444.204" y1="-5.30969" x2="444.204" y2="297.717" stroke="white"/>
<line opacity="0.1" x1="446.61" y1="-5.30969" x2="446.61" y2="297.717" stroke="white"/>
<line opacity="0.1" x1="449.016" y1="-5.30969" x2="449.016" y2="297.717" stroke="white"/>
<line opacity="0.1" x1="451.421" y1="-5.30969" x2="451.421" y2="297.717" stroke="white"/>
<line opacity="0.1" x1="453.827" y1="-5.30969" x2="453.827" y2="297.717" stroke="white"/>
<line opacity="0.1" x1="456.233" y1="-5.30969" x2="456.233" y2="297.717" stroke="white"/>
<line opacity="0.1" x1="458.639" y1="-5.30969" x2="458.639" y2="297.717" stroke="white"/>
<line opacity="0.1" x1="461.044" y1="-5.30969" x2="461.044" y2="297.717" stroke="white"/>
<line opacity="0.1" x1="463.45" y1="-5.30969" x2="463.45" y2="297.717" stroke="white"/>
<line opacity="0.1" x1="465.856" y1="-5.30969" x2="465.856" y2="297.717" stroke="white"/>
<line opacity="0.1" x1="468.262" y1="-5.30969" x2="468.262" y2="297.717" stroke="white"/>
<line opacity="0.1" x1="470.667" y1="-5.30969" x2="470.667" y2="297.717" stroke="white"/>
<line opacity="0.1" x1="473.073" y1="-5.30969" x2="473.073" y2="297.717" stroke="white"/>
<line opacity="0.1" x1="475.479" y1="-5.30969" x2="475.479" y2="297.717" stroke="white"/>
<line opacity="0.1" x1="477.885" y1="-5.30969" x2="477.885" y2="297.717" stroke="white"/>
<line opacity="0.1" x1="480.291" y1="-5.30969" x2="480.291" y2="297.717" stroke="white"/>
<line opacity="0.1" x1="482.696" y1="-5.30969" x2="482.696" y2="297.717" stroke="white"/>
<line opacity="0.1" x1="485.102" y1="-5.30969" x2="485.102" y2="297.717" stroke="white"/>
<line opacity="0.1" x1="487.508" y1="-5.30969" x2="487.508" y2="297.717" stroke="white"/>
<line opacity="0.1" x1="489.914" y1="-5.30969" x2="489.914" y2="297.717" stroke="white"/>
<line opacity="0.1" x1="492.319" y1="-5.30969" x2="492.319" y2="297.717" stroke="white"/>
<line opacity="0.1" x1="494.725" y1="-5.30969" x2="494.725" y2="297.717" stroke="white"/>
<line opacity="0.1" x1="497.131" y1="-5.30969" x2="497.131" y2="297.717" stroke="white"/>
<line opacity="0.1" x1="499.537" y1="-5.30969" x2="499.537" y2="297.717" stroke="white"/>
<line opacity="0.1" x1="501.942" y1="-5.30969" x2="501.942" y2="297.717" stroke="white"/>
<line opacity="0.1" x1="504.348" y1="-5.30969" x2="504.348" y2="297.717" stroke="white"/>
<line opacity="0.1" x1="506.754" y1="-5.30969" x2="506.754" y2="297.717" stroke="white"/>
<line opacity="0.1" x1="509.16" y1="-5.30969" x2="509.16" y2="297.717" stroke="white"/>
<line opacity="0.1" x1="511.565" y1="-5.30969" x2="511.565" y2="297.717" stroke="white"/>
<line opacity="0.1" x1="513.971" y1="-5.30969" x2="513.971" y2="297.717" stroke="white"/>
<line opacity="0.1" x1="516.377" y1="-5.30969" x2="516.377" y2="297.717" stroke="white"/>
<line opacity="0.1" x1="518.783" y1="-5.30969" x2="518.783" y2="297.717" stroke="white"/>
<line opacity="0.1" x1="521.188" y1="-5.30969" x2="521.188" y2="297.717" stroke="white"/>
<line opacity="0.1" x1="523.594" y1="-5.30969" x2="523.594" y2="297.717" stroke="white"/>
<line opacity="0.1" x1="526" y1="-5.30969" x2="526" y2="297.717" stroke="white"/>
<line opacity="0.1" x1="528.406" y1="-5.30969" x2="528.406" y2="297.717" stroke="white"/>
<line opacity="0.1" x1="530.812" y1="-5.30969" x2="530.812" y2="297.717" stroke="white"/>
<line opacity="0.1" x1="533.217" y1="-5.30969" x2="533.217" y2="297.717" stroke="white"/>
<line opacity="0.1" x1="535.623" y1="-5.30969" x2="535.623" y2="297.717" stroke="white"/>
<line opacity="0.1" x1="538.029" y1="-5.30969" x2="538.029" y2="297.717" stroke="white"/>
<line opacity="0.1" x1="540.435" y1="-5.30969" x2="540.435" y2="297.717" stroke="white"/>
<line opacity="0.1" x1="542.84" y1="-5.30969" x2="542.84" y2="297.717" stroke="white"/>
<line opacity="0.1" x1="545.246" y1="-5.30969" x2="545.246" y2="297.717" stroke="white"/>
<line opacity="0.1" x1="547.652" y1="-5.30969" x2="547.652" y2="297.717" stroke="white"/>
<line opacity="0.1" x1="550.058" y1="-5.30969" x2="550.058" y2="297.717" stroke="white"/>
<line opacity="0.1" x1="552.463" y1="-5.30969" x2="552.463" y2="297.717" stroke="white"/>
<line opacity="0.1" x1="554.869" y1="-5.30969" x2="554.869" y2="297.717" stroke="white"/>
<line opacity="0.1" x1="557.275" y1="-5.30969" x2="557.275" y2="297.717" stroke="white"/>
<line opacity="0.1" x1="559.681" y1="-5.30969" x2="559.681" y2="297.717" stroke="white"/>
<line opacity="0.1" x1="562.086" y1="-5.30969" x2="562.086" y2="297.717" stroke="white"/>
<line opacity="0.1" x1="564.492" y1="-5.30969" x2="564.492" y2="297.717" stroke="white"/>
<line opacity="0.1" x1="566.898" y1="-5.30969" x2="566.898" y2="297.717" stroke="white"/>
<line opacity="0.1" x1="569.304" y1="-5.30969" x2="569.304" y2="297.717" stroke="white"/>
<line opacity="0.1" x1="571.709" y1="-5.30969" x2="571.709" y2="297.717" stroke="white"/>
<line opacity="0.1" x1="574.115" y1="-5.30969" x2="574.115" y2="297.717" stroke="white"/>
<line opacity="0.1" x1="576.521" y1="-5.30969" x2="576.521" y2="297.717" stroke="white"/>
<line opacity="0.1" x1="578.927" y1="-5.30969" x2="578.927" y2="297.717" stroke="white"/>
<line opacity="0.1" x1="581.333" y1="-5.30969" x2="581.333" y2="297.717" stroke="white"/>
<line opacity="0.1" x1="583.738" y1="-5.30969" x2="583.738" y2="297.717" stroke="white"/>
<line opacity="0.1" x1="586.144" y1="-5.30969" x2="586.144" y2="297.717" stroke="white"/>
<line opacity="0.1" x1="588.55" y1="-5.30969" x2="588.55" y2="297.717" stroke="white"/>
<line opacity="0.1" x1="590.956" y1="-5.30969" x2="590.956" y2="297.717" stroke="white"/>
<line opacity="0.1" x1="593.361" y1="-5.30969" x2="593.361" y2="297.717" stroke="white"/>
<line opacity="0.1" x1="595.767" y1="-5.30969" x2="595.767" y2="297.717" stroke="white"/>
<line opacity="0.1" x1="598.173" y1="-5.30969" x2="598.173" y2="297.717" stroke="white"/>
<line opacity="0.1" x1="600.579" y1="-5.30969" x2="600.579" y2="297.717" stroke="white"/>
<line opacity="0.1" x1="602.984" y1="-5.30969" x2="602.984" y2="297.717" stroke="white"/>
<line opacity="0.1" x1="605.39" y1="-5.30969" x2="605.39" y2="297.717" stroke="white"/>
<line opacity="0.1" x1="607.796" y1="-5.30969" x2="607.796" y2="297.717" stroke="white"/>
<line opacity="0.1" x1="610.202" y1="-5.30969" x2="610.202" y2="297.717" stroke="white"/>
<line opacity="0.1" x1="612.607" y1="-5.30969" x2="612.607" y2="297.717" stroke="white"/>
<line opacity="0.1" x1="615.013" y1="-5.30969" x2="615.013" y2="297.717" stroke="white"/>
<line opacity="0.1" x1="617.419" y1="-5.30969" x2="617.419" y2="297.717" stroke="white"/>
<line opacity="0.1" x1="619.825" y1="-5.30969" x2="619.825" y2="297.717" stroke="white"/>
<line opacity="0.1" x1="622.23" y1="-5.30969" x2="622.23" y2="297.717" stroke="white"/>
<line opacity="0.1" x1="624.636" y1="-5.30969" x2="624.636" y2="297.717" stroke="white"/>
<line opacity="0.1" x1="627.042" y1="-5.30969" x2="627.042" y2="297.717" stroke="white"/>
<line opacity="0.1" x1="629.448" y1="-5.30969" x2="629.448" y2="297.717" stroke="white"/>
<line opacity="0.1" x1="631.854" y1="-5.30969" x2="631.854" y2="297.717" stroke="white"/>
<line opacity="0.1" x1="634.259" y1="-5.30969" x2="634.259" y2="297.717" stroke="white"/>
<line opacity="0.1" x1="636.665" y1="-5.30969" x2="636.665" y2="297.717" stroke="white"/>
<line opacity="0.1" x1="639.071" y1="-5.30969" x2="639.071" y2="297.717" stroke="white"/>
<line opacity="0.1" x1="641.477" y1="-5.30969" x2="641.477" y2="297.717" stroke="white"/>
<line opacity="0.1" x1="643.882" y1="-5.30969" x2="643.882" y2="297.717" stroke="white"/>
<line opacity="0.1" x1="646.288" y1="-5.30969" x2="646.288" y2="297.717" stroke="white"/>
<line opacity="0.1" x1="648.694" y1="-5.30969" x2="648.694" y2="297.717" stroke="white"/>
<line opacity="0.1" x1="651.1" y1="-5.30969" x2="651.1" y2="297.717" stroke="white"/>
<line opacity="0.1" x1="653.505" y1="-5.30969" x2="653.505" y2="297.717" stroke="white"/>
<line opacity="0.1" x1="655.911" y1="-5.30969" x2="655.911" y2="297.717" stroke="white"/>
<line opacity="0.1" x1="658.317" y1="-5.30969" x2="658.317" y2="297.717" stroke="white"/>
<line opacity="0.1" x1="660.723" y1="-5.30969" x2="660.723" y2="297.717" stroke="white"/>
<line opacity="0.1" x1="663.128" y1="-5.30969" x2="663.128" y2="297.717" stroke="white"/>
<line opacity="0.1" x1="665.534" y1="-5.30969" x2="665.534" y2="297.717" stroke="white"/>
<line opacity="0.1" x1="667.94" y1="-5.30969" x2="667.94" y2="297.717" stroke="white"/>
<line opacity="0.1" x1="670.346" y1="-5.30969" x2="670.346" y2="297.717" stroke="white"/>
<line opacity="0.1" x1="672.751" y1="-5.30969" x2="672.751" y2="297.717" stroke="white"/>
<line opacity="0.1" x1="675.157" y1="-5.30969" x2="675.157" y2="297.717" stroke="white"/>
<line opacity="0.1" x1="677.563" y1="-5.30969" x2="677.563" y2="297.717" stroke="white"/>
<line opacity="0.1" x1="679.969" y1="-5.30969" x2="679.969" y2="297.717" stroke="white"/>
<line opacity="0.1" x1="682.375" y1="-5.30969" x2="682.375" y2="297.717" stroke="white"/>
<line opacity="0.1" x1="684.78" y1="-5.30969" x2="684.78" y2="297.717" stroke="white"/>
<line opacity="0.1" x1="687.186" y1="-5.30969" x2="687.186" y2="297.717" stroke="white"/>
<line opacity="0.1" x1="689.592" y1="-5.30969" x2="689.592" y2="297.717" stroke="white"/>
<line opacity="0.1" x1="691.998" y1="-5.30969" x2="691.998" y2="297.717" stroke="white"/>
<line opacity="0.1" x1="694.403" y1="-5.30969" x2="694.403" y2="297.717" stroke="white"/>
<line opacity="0.1" x1="696.809" y1="-5.30969" x2="696.809" y2="297.717" stroke="white"/>
<line opacity="0.1" x1="699.215" y1="-5.30969" x2="699.215" y2="297.717" stroke="white"/>
<line opacity="0.1" x1="701.621" y1="-5.30969" x2="701.621" y2="297.717" stroke="white"/>
<line opacity="0.1" x1="704.026" y1="-5.30969" x2="704.026" y2="297.717" stroke="white"/>
<line opacity="0.1" x1="706.432" y1="-5.30969" x2="706.432" y2="297.717" stroke="white"/>
<line opacity="0.1" x1="708.838" y1="-5.30969" x2="708.838" y2="297.717" stroke="white"/>
<line opacity="0.1" x1="711.244" y1="-5.30969" x2="711.244" y2="297.717" stroke="white"/>
<line opacity="0.1" x1="713.649" y1="-5.30969" x2="713.649" y2="297.717" stroke="white"/>
<line opacity="0.1" x1="716.055" y1="-5.30969" x2="716.055" y2="297.717" stroke="white"/>
<line opacity="0.1" x1="718.461" y1="-5.30969" x2="718.461" y2="297.717" stroke="white"/>
<line opacity="0.1" x1="720.867" y1="-5.30969" x2="720.867" y2="297.717" stroke="white"/>
<line opacity="0.1" x1="723.272" y1="-5.30969" x2="723.272" y2="297.717" stroke="white"/>
<line opacity="0.1" x1="725.678" y1="-5.30969" x2="725.678" y2="297.717" stroke="white"/>
<line opacity="0.1" x1="728.084" y1="-5.30969" x2="728.084" y2="297.717" stroke="white"/>
<line opacity="0.1" x1="730.49" y1="-5.30969" x2="730.49" y2="297.717" stroke="white"/>
<line opacity="0.1" x1="732.896" y1="-5.30969" x2="732.896" y2="297.717" stroke="white"/>
<line opacity="0.1" x1="735.301" y1="-5.30969" x2="735.301" y2="297.717" stroke="white"/>
<line opacity="0.1" x1="737.707" y1="-5.30969" x2="737.707" y2="297.717" stroke="white"/>
<line opacity="0.1" x1="740.113" y1="-5.30969" x2="740.113" y2="297.717" stroke="white"/>
<line opacity="0.1" x1="742.519" y1="-5.30969" x2="742.519" y2="297.717" stroke="white"/>
<line opacity="0.1" x1="744.924" y1="-5.30969" x2="744.924" y2="297.717" stroke="white"/>
<line opacity="0.1" x1="747.33" y1="-5.30969" x2="747.33" y2="297.717" stroke="white"/>
<line opacity="0.1" x1="749.736" y1="-5.30969" x2="749.736" y2="297.717" stroke="white"/>
<line opacity="0.1" x1="752.142" y1="-5.30969" x2="752.142" y2="297.717" stroke="white"/>
<line opacity="0.1" x1="754.547" y1="-5.30969" x2="754.547" y2="297.717" stroke="white"/>
<line opacity="0.1" x1="756.953" y1="-5.30969" x2="756.953" y2="297.717" stroke="white"/>
<line opacity="0.1" x1="759.359" y1="-5.30969" x2="759.359" y2="297.717" stroke="white"/>
<line opacity="0.1" x1="761.765" y1="-5.30969" x2="761.765" y2="297.717" stroke="white"/>
<line opacity="0.1" x1="764.17" y1="-5.30969" x2="764.17" y2="297.717" stroke="white"/>
<line opacity="0.1" x1="766.576" y1="-5.30969" x2="766.576" y2="297.717" stroke="white"/>
<line opacity="0.1" x1="768.982" y1="-5.30969" x2="768.982" y2="297.717" stroke="white"/>
<line opacity="0.1" x1="771.388" y1="-5.30969" x2="771.388" y2="297.717" stroke="white"/>
<line opacity="0.1" x1="773.793" y1="-5.30969" x2="773.793" y2="297.717" stroke="white"/>
<line opacity="0.1" x1="776.199" y1="-5.30969" x2="776.199" y2="297.717" stroke="white"/>
<line opacity="0.1" x1="778.605" y1="-5.30969" x2="778.605" y2="297.717" stroke="white"/>
<line opacity="0.1" x1="781.011" y1="-5.30969" x2="781.011" y2="297.717" stroke="white"/>
<line opacity="0.1" x1="783.417" y1="-5.30969" x2="783.417" y2="297.717" stroke="white"/>
<line opacity="0.1" x1="785.822" y1="-5.30969" x2="785.822" y2="297.717" stroke="white"/>
<line opacity="0.1" x1="788.228" y1="-5.30969" x2="788.228" y2="297.717" stroke="white"/>
<line opacity="0.1" x1="790.634" y1="-5.30969" x2="790.634" y2="297.717" stroke="white"/>
<line opacity="0.1" x1="793.04" y1="-5.30969" x2="793.04" y2="297.717" stroke="white"/>
<line opacity="0.1" x1="795.445" y1="-5.30969" x2="795.445" y2="297.717" stroke="white"/>
<line opacity="0.1" x1="797.851" y1="-5.30969" x2="797.851" y2="297.717" stroke="white"/>
<line opacity="0.1" x1="800.257" y1="-5.30969" x2="800.257" y2="297.717" stroke="white"/>
<line opacity="0.1" x1="802.663" y1="-5.30969" x2="802.663" y2="297.717" stroke="white"/>
</g>
</svg>
