<svg width="55" height="48" viewBox="0 0 55 48" fill="none" xmlns="http://www.w3.org/2000/svg">
<path fill-rule="evenodd" clip-rule="evenodd" d="M14.1835 31.8877C14.2657 31.8254 14.4183 31.7596 14.6474 31.7077C14.8678 31.6577 15.1186 31.6294 15.3626 31.6153C15.5213 31.6061 15.6724 31.6031 15.8041 31.6033C15.8051 31.617 15.8051 31.617 15.8051 31.617L15.8052 31.617L15.8077 31.6168L15.8199 31.616C15.831 31.6153 15.8482 31.6143 15.8707 31.6131C15.9092 31.6111 15.9631 31.6086 16.0291 31.6067C16.095 31.6086 16.1489 31.6111 16.1874 31.6131C16.2099 31.6143 16.2271 31.6153 16.2382 31.616L16.2504 31.6168L16.2529 31.617L16.253 31.617C16.253 31.617 16.253 31.617 16.254 31.6033C16.3857 31.6031 16.5368 31.6061 16.6955 31.6153C16.9395 31.6294 17.1903 31.6577 17.4108 31.7077C17.6398 31.7596 17.7924 31.8254 17.8746 31.8877C18.8847 32.6523 19.3925 33.4843 19.6036 34.3004C19.8167 35.1249 19.7379 35.9766 19.5001 36.7879C19.0205 38.4244 17.9245 39.7934 17.5589 40.1974C17.0788 40.728 17.1733 41.3865 17.3826 41.8433C17.5865 42.2884 17.9655 42.7064 18.3547 42.8763C18.5892 42.9786 20.135 43.7141 21.6556 44.5013C22.4149 44.8944 23.1586 45.2956 23.7242 45.6335C24.0081 45.8031 24.2376 45.9511 24.3991 46.0702C24.4803 46.1302 24.5352 46.1761 24.5685 46.2082L24.5732 46.2128C24.6463 46.4311 24.6845 46.807 24.6955 47.193C24.7011 47.3864 24.6995 47.5628 24.6965 47.691C24.695 47.7549 24.6932 47.8063 24.6918 47.8414L24.69 47.881L24.6896 47.8905L24.6894 47.8925L24.6894 47.8928L25.1887 47.9202C25.6879 47.9476 25.6879 47.9475 25.6879 47.9475L25.6879 47.9473L25.688 47.947L25.688 47.9458L25.6882 47.9421L25.6889 47.9291L25.6909 47.8821C25.6926 47.8419 25.6946 47.7846 25.6962 47.7142C25.6995 47.5738 25.7013 47.3795 25.6951 47.1645C25.6836 46.7602 25.6432 46.1938 25.4868 45.8005C25.4303 45.6586 25.3275 45.551 25.2626 45.4884C25.1854 45.4139 25.0921 45.3388 24.9927 45.2655C24.7931 45.1182 24.5318 44.9511 24.237 44.775C23.6453 44.4215 22.8806 44.0094 22.1153 43.6132C20.5866 42.8218 19.0186 42.075 18.7547 41.9598C18.6454 41.9121 18.421 41.7089 18.2917 41.4267C18.1676 41.1559 18.1988 40.9807 18.3004 40.8683C18.7097 40.416 19.9188 38.9147 20.4597 37.0692C20.7322 36.1395 20.8425 35.0973 20.5717 34.0501C20.2988 32.9947 19.6498 31.9773 18.4781 31.0903L18.4781 31.0903C18.2299 30.9025 17.9162 30.7969 17.6318 30.7324C17.3388 30.666 17.0289 30.6329 16.7535 30.617C16.4763 30.6009 16.2228 30.6015 16.0392 30.6061C16.0358 30.6062 16.0324 30.6062 16.0291 30.6063C16.0257 30.6062 16.0223 30.6062 16.0189 30.6061C15.8353 30.6015 15.5818 30.6009 15.3047 30.617C15.0293 30.6329 14.7193 30.666 14.4263 30.7324C14.1419 30.7969 13.8282 30.9025 13.58 31.0903L13.58 31.0903C12.4083 31.9773 11.7593 32.9947 11.4864 34.0501C11.2156 35.0973 11.3259 36.1395 11.5984 37.0692C12.1393 38.9147 13.3484 40.416 13.7577 40.8683C13.8593 40.9807 13.8905 41.1559 13.7665 41.4267C13.6371 41.7089 13.4127 41.9121 13.3034 41.9598C13.0395 42.075 11.4715 42.8218 9.94279 43.6132C9.17753 44.0094 8.41276 44.4215 7.82107 44.775C7.52635 44.9511 7.26504 45.1182 7.06537 45.2655C6.96602 45.3388 6.87274 45.4139 6.79551 45.4884C6.73057 45.551 6.62776 45.6586 6.57132 45.8005C6.4149 46.1938 6.37451 46.7602 6.36297 47.1645C6.35684 47.3795 6.3586 47.5738 6.36186 47.7142C6.36349 47.7846 6.36552 47.8419 6.36716 47.8821L6.36924 47.9291L6.36988 47.9421L6.37008 47.9458L6.37014 47.947L6.37016 47.9473L6.37017 47.9475C6.37017 47.9475 6.37017 47.9476 6.86942 47.9202L7.36867 47.8928L7.36866 47.8925L7.36855 47.8905L7.36808 47.881L7.36633 47.8414C7.3649 47.8063 7.36307 47.7549 7.36159 47.691C7.35861 47.5628 7.35705 47.3864 7.36257 47.193C7.37359 46.807 7.41182 46.4311 7.48495 46.2128L7.48965 46.2082C7.52293 46.1761 7.5778 46.1302 7.65903 46.0702C7.82052 45.9511 8.05004 45.8031 8.33394 45.6335C8.89951 45.2956 9.64318 44.8944 10.4025 44.5013C11.9231 43.7141 13.4689 42.9786 13.7035 42.8763C14.0926 42.7064 14.4716 42.2884 14.6755 41.8433C14.8848 41.3865 14.9793 40.728 14.4992 40.1974C14.1336 39.7934 13.0376 38.4244 12.558 36.7879C12.3202 35.9766 12.2414 35.1249 12.4545 34.3004C12.6656 33.4843 13.1734 32.6523 14.1835 31.8877ZM7.46608 46.233C7.46603 46.233 7.46672 46.2321 7.46835 46.2302L7.46608 46.233ZM24.592 46.233C24.5921 46.233 24.5914 46.2321 24.5898 46.2302L24.592 46.233Z" fill="white"/>
<path fill-rule="evenodd" clip-rule="evenodd" d="M36.9946 31.8877C37.0768 31.8254 37.2293 31.7596 37.4584 31.7077C37.6788 31.6577 37.9296 31.6294 38.1736 31.6153C38.3323 31.6061 38.4835 31.6031 38.6152 31.6033C38.6162 31.617 38.6161 31.617 38.6161 31.617L38.6163 31.617L38.6188 31.6168L38.6309 31.616C38.6421 31.6153 38.6592 31.6143 38.6818 31.6131C38.7202 31.6111 38.7741 31.6086 38.8401 31.6067C38.906 31.6086 38.9599 31.6111 38.9984 31.6131C39.0209 31.6143 39.0381 31.6153 39.0493 31.616L39.0614 31.6168L39.0639 31.617L39.0641 31.617C39.064 31.617 39.064 31.617 39.065 31.6033C39.1967 31.6031 39.3479 31.6061 39.5066 31.6153C39.7506 31.6294 40.0013 31.6577 40.2218 31.7077C40.4508 31.7596 40.6034 31.8254 40.6856 31.8877C41.6957 32.6523 42.2036 33.4843 42.4146 34.3004C42.6278 35.1249 42.5489 35.9766 42.3111 36.7879C41.8315 38.4244 40.7355 39.7934 40.37 40.1974C39.8898 40.728 39.9843 41.3865 40.1936 41.8433C40.3976 42.2884 40.7766 42.7064 41.1657 42.8763C41.4002 42.9786 42.9461 43.7141 44.4666 44.5013C45.226 44.8944 45.9696 45.2956 46.5352 45.6335C46.8191 45.8031 47.0486 45.9511 47.2101 46.0702C47.2913 46.1302 47.3462 46.1761 47.3795 46.2082L47.3842 46.2128C47.4573 46.4311 47.4956 46.807 47.5066 47.193C47.5121 47.3864 47.5105 47.5628 47.5076 47.691C47.5061 47.7549 47.5042 47.8063 47.5028 47.8414L47.5011 47.881L47.5006 47.8905L47.5005 47.8925L47.5005 47.8928L47.9997 47.9202C48.499 47.9476 48.499 47.9475 48.499 47.9475L48.499 47.9473L48.499 47.947L48.4991 47.9458L48.4993 47.9421L48.4999 47.9291L48.502 47.8821C48.5036 47.8419 48.5056 47.7846 48.5073 47.7142C48.5105 47.5738 48.5123 47.3795 48.5062 47.1645C48.4946 46.7602 48.4542 46.1938 48.2978 45.8005C48.2414 45.6586 48.1386 45.551 48.0736 45.4884C47.9964 45.4139 47.9031 45.3388 47.8038 45.2655C47.6041 45.1182 47.3428 44.9511 47.0481 44.775C46.4564 44.4215 45.6916 44.0094 44.9264 43.6132C43.3977 42.8218 41.8296 42.075 41.5658 41.9598C41.4565 41.9121 41.232 41.7089 41.1027 41.4267C40.9786 41.1559 41.0098 40.9807 41.1115 40.8683C41.5207 40.416 42.7299 38.9147 43.2708 37.0692C43.5433 36.1395 43.6535 35.0973 43.3828 34.0501C43.1099 32.9947 42.4608 31.9773 41.2891 31.0903L41.2891 31.0903C41.0409 30.9025 40.7272 30.7969 40.4428 30.7324C40.1498 30.666 39.8399 30.6329 39.5645 30.617C39.2873 30.6009 39.0338 30.6015 38.8502 30.6061C38.8468 30.6062 38.8434 30.6062 38.8401 30.6063C38.8367 30.6062 38.8334 30.6062 38.83 30.6061C38.6463 30.6015 38.3929 30.6009 38.1157 30.617C37.8403 30.6329 37.5303 30.666 37.2373 30.7324C36.9529 30.7969 36.6393 30.9025 36.3911 31.0903L36.391 31.0903C35.2193 31.9773 34.5703 32.9947 34.2974 34.0501C34.0267 35.0973 34.1369 36.1395 34.4094 37.0692C34.9503 38.9147 36.1595 40.416 36.5687 40.8683C36.6704 40.9807 36.7015 41.1559 36.5775 41.4267C36.4481 41.7089 36.2237 41.9121 36.1144 41.9598C35.8506 42.075 34.2825 42.8218 32.7538 43.6132C31.9886 44.0094 31.2238 44.4215 30.6321 44.775C30.3374 44.9511 30.0761 45.1182 29.8764 45.2655C29.7771 45.3388 29.6838 45.4139 29.6065 45.4884C29.5416 45.551 29.4388 45.6586 29.3824 45.8005C29.2259 46.1938 29.1855 46.7602 29.174 47.1645C29.1679 47.3795 29.1696 47.5738 29.1729 47.7142C29.1745 47.7846 29.1766 47.8419 29.1782 47.8821L29.1803 47.9291L29.1809 47.9421L29.1811 47.9458L29.1812 47.947L29.1812 47.9473L29.1812 47.9475C29.1812 47.9475 29.1812 47.9476 29.6805 47.9202L30.1797 47.8928L30.1797 47.8925L30.1796 47.8905L30.1791 47.881L30.1774 47.8414C30.1759 47.8063 30.1741 47.7549 30.1726 47.691C30.1696 47.5628 30.1681 47.3864 30.1736 47.193C30.1846 46.807 30.2229 46.4311 30.296 46.2128L30.3007 46.2082C30.334 46.1761 30.3888 46.1302 30.4701 46.0702C30.6316 45.9511 30.8611 45.8031 31.145 45.6335C31.7105 45.2956 32.4542 44.8944 33.2136 44.5013C34.7341 43.7141 36.2799 42.9786 36.5145 42.8763C36.9036 42.7064 37.2826 42.2884 37.4866 41.8433C37.6959 41.3865 37.7903 40.728 37.3102 40.1974C36.9446 39.7934 35.8487 38.4244 35.369 36.7879C35.1313 35.9766 35.0524 35.1249 35.2656 34.3004C35.4766 33.4843 35.9845 32.6523 36.9946 31.8877ZM30.2771 46.233C30.2771 46.233 30.2778 46.2321 30.2794 46.2302L30.2771 46.233ZM47.4031 46.233C47.4031 46.233 47.4024 46.2321 47.4008 46.2302L47.4031 46.233Z" fill="white"/>
<path fill-rule="evenodd" clip-rule="evenodd" d="M43.2958 13.8147C43.3781 13.7524 43.5306 13.6866 43.7597 13.6347C43.9801 13.5847 44.2309 13.5564 44.4749 13.5423C44.6336 13.5331 44.7847 13.5301 44.9164 13.5303C44.9174 13.544 44.9174 13.544 44.9174 13.544L44.9176 13.544L44.92 13.5438L44.9322 13.543C44.9433 13.5423 44.9605 13.5413 44.983 13.5401C45.0215 13.5381 45.0754 13.5356 45.1414 13.5337C45.2073 13.5356 45.2612 13.5381 45.2997 13.5401C45.3222 13.5413 45.3394 13.5423 45.3505 13.543L45.3627 13.5438L45.3652 13.544L45.3653 13.544C45.3653 13.544 45.3653 13.544 45.3663 13.5303C45.498 13.5301 45.6491 13.5331 45.8078 13.5423C46.0518 13.5564 46.3026 13.5847 46.5231 13.6347C46.7521 13.6866 46.9047 13.7524 46.9869 13.8147C47.997 14.5793 48.5048 15.4113 48.7159 16.2274C48.929 17.0519 48.8502 17.9036 48.6124 18.7149C48.1328 20.3514 47.0368 21.7204 46.6712 22.1244C46.1911 22.655 46.2856 23.3135 46.4949 23.7703C46.6989 24.2154 47.0778 24.6334 47.467 24.8033C47.7015 24.9056 49.2473 25.6411 50.7679 26.4283C51.5272 26.8214 52.2709 27.2226 52.8365 27.5605C53.1204 27.7301 53.3499 27.8781 53.5114 27.9972C53.5926 28.0572 53.6475 28.1031 53.6808 28.1352L53.6855 28.1398C53.7586 28.3581 53.7968 28.734 53.8078 29.12C53.8134 29.3134 53.8118 29.4898 53.8088 29.618C53.8073 29.6819 53.8055 29.7333 53.8041 29.7684L53.8023 29.808L53.8019 29.8175L53.8018 29.8195L53.8017 29.8198L54.301 29.8472C54.8002 29.8746 54.8002 29.8745 54.8002 29.8745L54.8003 29.8743L54.8003 29.874L54.8003 29.8728L54.8005 29.8691L54.8012 29.8561L54.8033 29.8091C54.8049 29.7689 54.8069 29.7116 54.8086 29.6412C54.8118 29.5008 54.8136 29.3065 54.8074 29.0915C54.7959 28.6873 54.7555 28.1208 54.5991 27.7275C54.5427 27.5856 54.4398 27.478 54.3749 27.4154C54.2977 27.3409 54.2044 27.2658 54.105 27.1925C53.9054 27.0452 53.6441 26.8781 53.3493 26.702C52.7577 26.3485 51.9929 25.9364 51.2276 25.5402C49.699 24.7488 48.1309 24.002 47.867 23.8868C47.7577 23.8391 47.5333 23.6359 47.404 23.3537C47.2799 23.083 47.3111 22.9077 47.4127 22.7953C47.822 22.343 49.0312 20.8417 49.572 18.9962C49.8445 18.0665 49.9548 17.0243 49.684 15.9771C49.4111 14.9217 48.7621 13.9043 47.5904 13.0173L47.5904 13.0173C47.3422 12.8295 47.0285 12.7239 46.7441 12.6594C46.4511 12.593 46.1412 12.5599 45.8658 12.544C45.5886 12.5279 45.3351 12.5285 45.1515 12.5331C45.1481 12.5332 45.1447 12.5333 45.1414 12.5333C45.138 12.5333 45.1346 12.5332 45.1312 12.5331C44.9476 12.5285 44.6942 12.5279 44.417 12.544C44.1416 12.5599 43.8316 12.593 43.5386 12.6594C43.2542 12.7239 42.9405 12.8295 42.6923 13.0173L42.6923 13.0173C41.5206 13.9043 40.8716 14.9217 40.5987 15.9771C40.3279 17.0243 40.4382 18.0665 40.7107 18.9962C41.2516 20.8417 42.4607 22.343 42.87 22.7953C42.9716 22.9077 43.0028 23.083 42.8788 23.3537C42.7494 23.6359 42.525 23.8391 42.4157 23.8868C42.1518 24.002 40.5838 24.7488 39.0551 25.5402C38.2898 25.9364 37.5251 26.3485 36.9334 26.702C36.6386 26.8781 36.3773 27.0452 36.1777 27.1925C36.0783 27.2658 35.985 27.3409 35.9078 27.4154C35.8429 27.478 35.7401 27.5856 35.6836 27.7275C35.5272 28.1208 35.4868 28.6873 35.4753 29.0915C35.4691 29.3065 35.4709 29.5008 35.4742 29.6412C35.4758 29.7116 35.4778 29.7689 35.4795 29.8091L35.4815 29.8561L35.4822 29.8691L35.4824 29.8728L35.4824 29.874L35.4825 29.8743L35.4825 29.8745C35.4825 29.8745 35.4825 29.8746 35.9817 29.8472L36.481 29.8198L36.481 29.8195L36.4809 29.8175L36.4804 29.808L36.4786 29.7684C36.4772 29.7333 36.4754 29.6819 36.4739 29.618C36.4709 29.4898 36.4694 29.3134 36.4749 29.12C36.4859 28.734 36.5241 28.3581 36.5973 28.1398L36.602 28.1352C36.6352 28.1031 36.6901 28.0572 36.7713 27.9972C36.9328 27.8781 37.1623 27.7301 37.4462 27.5605C38.0118 27.2226 38.7555 26.8214 39.5148 26.4283C41.0354 25.6411 42.5812 24.9056 42.8158 24.8033C43.2049 24.6334 43.5839 24.2154 43.7879 23.7703C43.9971 23.3135 44.0916 22.655 43.6115 22.1244C43.2459 21.7204 42.1499 20.3514 41.6703 18.7149C41.4325 17.9036 41.3537 17.0519 41.5669 16.2274C41.7779 15.4113 42.2858 14.5793 43.2958 13.8147ZM36.5784 28.16C36.5783 28.16 36.579 28.1591 36.5807 28.1572L36.5784 28.16ZM53.7043 28.16C53.7044 28.16 53.7037 28.1591 53.7021 28.1572L53.7043 28.16Z" fill="white"/>
<path fill-rule="evenodd" clip-rule="evenodd" d="M8.07758 13.8147C8.15979 13.7524 8.31234 13.6866 8.54139 13.6347C8.76184 13.5847 9.01261 13.5564 9.25663 13.5423C9.41532 13.5331 9.56648 13.5301 9.69816 13.5303C9.69916 13.544 9.69914 13.544 9.69912 13.544L9.69929 13.544L9.70179 13.5438L9.7139 13.543C9.72506 13.5423 9.74224 13.5413 9.76476 13.5401C9.80324 13.5381 9.85715 13.5356 9.9231 13.5337C9.98904 13.5356 10.0429 13.5381 10.0814 13.5401C10.104 13.5413 10.1211 13.5423 10.1323 13.543L10.1444 13.5438L10.1469 13.544L10.1471 13.544C10.147 13.544 10.147 13.544 10.148 13.5303C10.2797 13.5301 10.4309 13.5331 10.5896 13.5423C10.8336 13.5564 11.0843 13.5847 11.3048 13.6347C11.5339 13.6866 11.6864 13.7524 11.7686 13.8147C12.7787 14.5793 13.2866 15.4113 13.4976 16.2274C13.7108 17.0519 13.6319 17.9036 13.3941 18.7149C12.9145 20.3514 11.8186 21.7204 11.453 22.1244C10.9728 22.655 11.0673 23.3135 11.2766 23.7703C11.4806 24.2154 11.8596 24.6334 12.2487 24.8033C12.4833 24.9056 14.0291 25.6411 15.5496 26.4283C16.309 26.8214 17.0526 27.2226 17.6182 27.5605C17.9021 27.7301 18.1316 27.8781 18.2931 27.9972C18.3743 28.0572 18.4292 28.1031 18.4625 28.1352L18.4672 28.1398C18.5403 28.3581 18.5786 28.734 18.5896 29.12C18.5951 29.3134 18.5935 29.4898 18.5906 29.618C18.5891 29.6819 18.5873 29.7333 18.5858 29.7684L18.5841 29.808L18.5836 29.8175L18.5835 29.8195L18.5835 29.8198L19.0827 29.8472C19.582 29.8746 19.582 29.8745 19.582 29.8745L19.582 29.8743L19.582 29.874L19.5821 29.8728L19.5823 29.8691L19.5829 29.8561L19.585 29.8091C19.5866 29.7689 19.5887 29.7116 19.5903 29.6412C19.5936 29.5008 19.5953 29.3065 19.5892 29.0915C19.5776 28.6873 19.5373 28.1208 19.3808 27.7275C19.3244 27.5856 19.2216 27.478 19.1566 27.4154C19.0794 27.3409 18.9861 27.2658 18.8868 27.1925C18.6871 27.0452 18.4258 26.8781 18.1311 26.702C17.5394 26.3485 16.7746 25.9364 16.0094 25.5402C14.4807 24.7488 12.9126 24.002 12.6488 23.8868C12.5395 23.8391 12.315 23.6359 12.1857 23.3537C12.0616 23.083 12.0928 22.9077 12.1945 22.7953C12.6037 22.343 13.8129 20.8417 14.3538 18.9962C14.6263 18.0665 14.7365 17.0243 14.4658 15.9771C14.1929 14.9217 13.5438 13.9043 12.3721 13.0173L12.3721 13.0173C12.1239 12.8295 11.8103 12.7239 11.5259 12.6594C11.2328 12.593 10.9229 12.5599 10.6475 12.544C10.3703 12.5279 10.1169 12.5285 9.93322 12.5331C9.92982 12.5332 9.92645 12.5333 9.9231 12.5333C9.91974 12.5333 9.91637 12.5332 9.91297 12.5331C9.72934 12.5285 9.47589 12.5279 9.19869 12.544C8.92329 12.5599 8.61335 12.593 8.32034 12.6594C8.03594 12.7239 7.72227 12.8295 7.47409 13.0173L7.47404 13.0173C6.30235 13.9043 5.65331 14.9217 5.38043 15.9771C5.10967 17.0243 5.21993 18.0665 5.49241 18.9962C6.0333 20.8417 7.24246 22.343 7.65172 22.7953C7.75337 22.9077 7.78455 23.083 7.66049 23.3537C7.53114 23.6359 7.30673 23.8391 7.19743 23.8868C6.93357 24.002 5.3655 24.7488 3.83683 25.5402C3.07157 25.9364 2.3068 26.3485 1.71512 26.702C1.42039 26.8781 1.15908 27.0452 0.95941 27.1925C0.860065 27.2658 0.766778 27.3409 0.689551 27.4154C0.624613 27.478 0.5218 27.5856 0.46536 27.7275C0.30894 28.1208 0.268556 28.6873 0.257016 29.0915C0.250879 29.3065 0.252639 29.5008 0.255901 29.6412C0.257536 29.7116 0.25956 29.7689 0.2612 29.8091L0.26328 29.8561L0.263927 29.8691L0.264121 29.8728L0.264181 29.874L0.264202 29.8743L0.26421 29.8745C0.264214 29.8745 0.264217 29.8746 0.763463 29.8472L1.26271 29.8198L1.2627 29.8195L1.26259 29.8175L1.26212 29.808L1.26037 29.7684C1.25894 29.7333 1.25712 29.6819 1.25563 29.618C1.25265 29.4898 1.25109 29.3134 1.25661 29.12C1.26763 28.734 1.30587 28.3581 1.37899 28.1398L1.38369 28.1352C1.41697 28.1031 1.47184 28.0572 1.55308 27.9972C1.71457 27.8781 1.94409 27.7301 2.22799 27.5605C2.79356 27.2226 3.53722 26.8214 4.29657 26.4283C5.81712 25.6411 7.36294 24.9056 7.5975 24.8033C7.98663 24.6334 8.3656 24.2154 8.56959 23.7703C8.77888 23.3135 8.87336 22.655 8.39323 22.1244C8.02764 21.7204 6.93167 20.3514 6.45205 18.7149C6.21427 17.9036 6.13543 17.0519 6.34859 16.2274C6.55962 15.4113 7.06749 14.5793 8.07758 13.8147ZM1.36013 28.16C1.36007 28.16 1.36077 28.1591 1.36239 28.1572L1.36013 28.16ZM18.4861 28.16C18.4861 28.16 18.4854 28.1591 18.4838 28.1572L18.4861 28.16Z" fill="white"/>
<path fill-rule="evenodd" clip-rule="evenodd" d="M25.7597 2.09153C25.8419 2.0293 25.9945 1.96349 26.2235 1.91157C26.444 1.8616 26.6947 1.83329 26.9388 1.81913C27.0975 1.80992 27.2486 1.80695 27.3803 1.80714C27.3813 1.82084 27.3813 1.82084 27.3813 1.82084L27.3814 1.82083L27.3839 1.82066L27.396 1.81986C27.4072 1.81914 27.4244 1.81811 27.4469 1.81693C27.4854 1.81492 27.5393 1.8125 27.6052 1.81057C27.6712 1.8125 27.7251 1.81492 27.7636 1.81693C27.7861 1.81811 27.8033 1.81914 27.8144 1.81986L27.8265 1.82066L27.829 1.82083L27.8292 1.82084C27.8292 1.82084 27.8292 1.82084 27.8302 1.80714C27.9618 1.80695 28.113 1.80992 28.2717 1.81913C28.5157 1.83329 28.7665 1.8616 28.9869 1.91157C29.216 1.96349 29.3685 2.0293 29.4507 2.09153C30.4608 2.8562 30.9687 3.68811 31.1797 4.5043C31.3929 5.32874 31.314 6.1805 31.0763 6.9918C30.5966 8.62829 29.5007 9.99721 29.1351 10.4013C28.655 10.9319 28.7494 11.5904 28.9587 12.0471C29.1627 12.4923 29.5417 12.9103 29.9308 13.0801C30.1654 13.1825 31.7112 13.9179 33.2317 14.7051C33.9911 15.0982 34.7348 15.4994 35.3003 15.8373C35.5842 16.0069 35.8138 16.155 35.9752 16.2741C36.0565 16.334 36.1113 16.38 36.1446 16.4121L36.1493 16.4167C36.2225 16.635 36.2607 17.0109 36.2717 17.3969C36.2772 17.5902 36.2757 17.7666 36.2727 17.8948C36.2712 17.9587 36.2694 18.0102 36.268 18.0452L36.2662 18.0848L36.2657 18.0944L36.2656 18.0964L36.2656 18.0967L36.7649 18.124C37.2641 18.1515 37.2641 18.1514 37.2641 18.1513L37.2641 18.1512L37.2641 18.1508L37.2642 18.1497L37.2644 18.146L37.265 18.133L37.2671 18.086C37.2688 18.0458 37.2708 17.9885 37.2724 17.9181C37.2757 17.7776 37.2774 17.5833 37.2713 17.3683C37.2598 16.9641 37.2194 16.3976 37.063 16.0044C37.0065 15.8625 36.9037 15.7549 36.8388 15.6922C36.7615 15.6178 36.6683 15.5427 36.5689 15.4694C36.3692 15.3221 36.1079 15.1549 35.8132 14.9789C35.2215 14.6254 34.4567 14.2132 33.6915 13.8171C32.1628 13.0257 30.5948 12.2788 30.3309 12.1636C30.2216 12.1159 29.9972 11.9128 29.8678 11.6305C29.7438 11.3598 29.775 11.1845 29.8766 11.0722C30.2859 10.6199 31.495 9.11857 32.0359 7.27305C32.3084 6.34333 32.4186 5.30115 32.1479 4.25397C31.875 3.19855 31.226 2.18119 30.0543 1.29419L30.0542 1.29416C29.806 1.10631 29.4924 1.00077 29.208 0.936305C28.915 0.86989 28.605 0.836794 28.3296 0.820812C28.0524 0.804725 27.799 0.805375 27.6153 0.809937C27.612 0.810021 27.6086 0.810107 27.6052 0.810194C27.6019 0.810107 27.5985 0.810021 27.5951 0.809937C27.4115 0.805375 27.158 0.804725 26.8808 0.820812C26.6054 0.836794 26.2955 0.86989 26.0025 0.936305C25.7181 1.00077 25.4044 1.10631 25.1562 1.29416L25.1562 1.29419C23.9845 2.18119 23.3354 3.19855 23.0626 4.25397C22.7918 5.30115 22.9021 6.34333 23.1745 7.27305C23.7154 9.11857 24.9246 10.6199 25.3339 11.0722C25.4355 11.1845 25.4667 11.3598 25.3426 11.6305C25.2133 11.9128 24.9889 12.1159 24.8796 12.1636C24.6157 12.2788 23.0476 13.0257 21.519 13.8171C20.7537 14.2132 19.9889 14.6254 19.3972 14.9789C19.1025 15.1549 18.8412 15.3221 18.6415 15.4694C18.5422 15.5427 18.4489 15.6178 18.3717 15.6922C18.3067 15.7549 18.2039 15.8625 18.1475 16.0044C17.9911 16.3976 17.9507 16.9641 17.9391 17.3683C17.933 17.5833 17.9348 17.7776 17.938 17.9181C17.9397 17.9885 17.9417 18.0458 17.9433 18.086L17.9454 18.133L17.9461 18.146L17.9462 18.1497L17.9463 18.1508L17.9463 18.1512L17.9463 18.1513C17.9463 18.1514 17.9463 18.1515 18.4456 18.124L18.9448 18.0967L18.9448 18.0964L18.9447 18.0944L18.9442 18.0848L18.9425 18.0452C18.9411 18.0102 18.9392 17.9587 18.9378 17.8948C18.9348 17.7666 18.9332 17.5902 18.9387 17.3969C18.9498 17.0109 18.988 16.635 19.0611 16.4167L19.0658 16.4121C19.0991 16.38 19.154 16.334 19.2352 16.2741C19.3967 16.155 19.6262 16.0069 19.9101 15.8373C20.4757 15.4994 21.2194 15.0982 21.9787 14.7051C23.4992 13.9179 25.0451 13.1825 25.2796 13.0801C25.6688 12.9103 26.0477 12.4923 26.2517 12.0471C26.461 11.5904 26.5555 10.9319 26.0754 10.4013C25.7098 9.99721 24.6138 8.62829 24.1342 6.9918C23.8964 6.1805 23.8176 5.32874 24.0307 4.5043C24.2417 3.68811 24.7496 2.8562 25.7597 2.09153ZM19.0423 16.4369C19.0422 16.4369 19.0429 16.436 19.0445 16.4341L19.0423 16.4369ZM36.1682 16.4369C36.1683 16.4369 36.1676 16.436 36.1659 16.4341L36.1682 16.4369Z" fill="white"/>
</svg>
