<svg width="95" height="121" viewBox="0 0 95 121" fill="none" xmlns="http://www.w3.org/2000/svg">
<path d="M43.4885 10.8536L47.582 20.7468L51.6756 10.8536L92.6089 2.48486V69.5246C88.3881 88.9281 78.1753 99.5379 47.6058 117.826C17.0363 99.5379 6.77593 88.9281 2.55518 69.5246V2.48486L43.4885 10.8536Z" stroke="white" stroke-width="4"/>
<circle cx="24.5077" cy="35.7217" r="3.64179" transform="rotate(-45 24.5077 35.7217)" fill="white"/>
<rect x="25.5923" y="38.8203" width="3.01074" height="8.51562" transform="rotate(-45 25.5923 38.8203)" fill="white"/>
<path d="M33.1816 47.9106L36.8114 44.2809L69.0147 76.4842C70.2277 78.7167 70.6004 79.9157 70.7248 81.8968C68.4654 81.5935 67.2754 81.2531 65.385 80.114L33.1816 47.9106Z" fill="white"/>
<path d="M26.4431 52.529L23.6442 49.7301C30.5743 44.7979 33.8744 41.5435 38.6313 34.7431L41.4302 37.5419C37.6106 45.2102 34.3292 48.491 26.4431 52.529Z" fill="white"/>
<circle cx="69.335" cy="35.6068" r="3.64179" transform="rotate(45 69.335 35.6068)" fill="white"/>
<rect x="66.2363" y="36.6914" width="3.01074" height="8.51562" transform="rotate(45 66.2363 36.6914)" fill="white"/>
<path d="M57.146 44.2808L60.7758 47.9105L28.5724 80.1139C26.3399 81.3268 25.1409 81.6995 23.1599 81.8239C23.4632 79.5645 23.8035 78.3745 24.9427 76.4841L57.146 44.2808Z" fill="white"/>
<path d="M52.5276 37.5422L55.3265 34.7433C60.2587 41.6735 63.5131 44.9736 70.3136 49.7304L67.5147 52.5293C59.8464 48.7097 56.5657 45.4283 52.5276 37.5422Z" fill="white"/>
</svg>
