<svg width="95" height="121" viewBox="0 0 95 121" fill="none" xmlns="http://www.w3.org/2000/svg">
<path d="M43.4065 11.6458L47.5 21.539L51.5935 11.6458L92.5269 3.2771V70.3168C88.3061 89.7204 78.0933 100.33 47.5238 118.618C16.9542 100.33 6.6939 89.7204 2.47314 70.3168V3.2771L43.4065 11.6458Z" stroke="white" stroke-width="4"/>
<circle cx="23.6129" cy="87.6846" r="4.35065" fill="white"/>
<rect x="22.0688" y="86.3562" width="13.7072" height="4.34103" transform="rotate(-45 22.0688 86.3562)" fill="white"/>
<path d="M31.8149 74.968L35.9167 70.8663L36.8466 74.0027L41.1042 75.3917L36.611 79.7641L31.8149 74.968Z" fill="white"/>
<path d="M28.6709 69.9846C34.9339 74.2921 37.7905 77.2189 41.874 83.1877L38.7428 86.3188C34.1415 80.4516 31.2322 77.5844 25.5398 73.1158L28.6709 69.9846Z" fill="white"/>
<path d="M55.7687 89.2696L43.5576 85.7259L44.5632 83.14C57.9718 83.14 64.8194 76.2443 67.8363 69.588C69.3555 66.2361 68.6025 55.0462 67.3574 51.726C67.9959 51.8218 70.8581 51.6315 72.6262 50.6725C74.8865 49.4466 76.4881 46.1237 77.0787 44.8787C77.2862 47.6721 78.1718 53.3976 75.3558 57.0896C73.2768 59.8154 72.0835 63.746 71.5248 65.6615C72.6338 65.2674 74.1887 64.3667 75.9193 63.0341C74.2433 66.1627 70.8246 73.3136 72.0505 74.0415C72.0505 74.0415 76.5998 74.0415 78.0375 74.2813C77.8619 76.0212 76.5338 79.6351 72.6262 80.1714C67.7417 80.8418 66.0167 85.295 63.7671 86.1094C62.2122 86.6724 58.211 86.1889 55.7687 85.7259V89.2696Z" fill="white"/>
<path d="M70.6432 83.1966C68.9354 83.1966 67.8187 85.7704 67.1426 86.7629C67.1426 86.7629 72.4427 85.4214 74.831 82.2151C73.7841 82.575 72.5735 83.1966 70.6432 83.1966Z" fill="white"/>
<path d="M75.9013 68.5037C77.6629 67.4044 78.8045 65.6425 79.6356 64.7024C79.8734 69.6375 76.4158 71.7089 75.098 72.0697C74.8344 71.4038 74.2283 69.5479 75.9013 68.5037Z" fill="white"/>
<path d="M78.5998 54.2831C79.5706 52.5546 81.3042 51.7055 81.9158 51.3406C82.0608 52.3024 82.1359 54.1092 80.6666 55.0754C79.3935 55.9126 78.4237 57.4428 77.7725 58.3307C77.7133 57.8769 77.6289 56.0116 78.5998 54.2831Z" fill="white"/>
<path d="M61.4899 55.0945C60.5021 52.4981 59.6519 51.2776 57.4404 49.663L71.0426 36.0171L77.2363 34.6628L76.3672 40.1694L61.4899 55.0945Z" fill="white"/>
<path d="M69.831 27.7698C67.8697 28.6749 67.1937 31.6512 67.0156 32.9296C70.9468 33.4768 72.3376 27.9722 73.1967 25.3005C72.9766 25.6987 71.7923 26.8647 69.831 27.7698Z" fill="white"/>
<path d="M60.0807 24.2273C60.2333 27.3732 58.0188 27.2663 58.1311 30.9572C60.0806 30.4886 62.6839 28.048 60.0807 24.2273Z" fill="white"/>
<path d="M31.8515 32.0404L31.8518 32.0403C32.3592 36.0039 29.7709 38.4024 27.9277 38.4024C28.225 38.2967 28.7799 36.8286 28.7799 35.6872C29.097 33.0318 30.9331 32.3709 31.8515 32.0404Z" fill="white"/>
<path d="M15.9113 52.3102C15.3758 50.0399 16.4448 48.3041 17.9876 47.9231C17.0351 50.7412 18.1582 52.1507 18.1584 53.1973C17.7568 53.8667 16.1646 53.3844 15.9113 52.3102Z" fill="white"/>
<path d="M26.7403 68.05L22.8483 72.134C20.8663 70.5116 20.0031 69.4317 19.0222 66.9887C20.9088 67.3082 22.6504 66.9887 22.6504 66.9887C19.0222 64.1469 17.4389 60.7046 17.2666 58.7375L21.3506 61.3081C18.1203 53.8177 19.5722 47.2073 23.2598 44.6943C22.8562 48.9023 24.4219 52.5107 25.8001 53.681L26.0445 45.7323C27.6029 44.7807 31.3492 42.0871 32.1919 39.5591C33.0345 37.0311 37.6703 32.4235 39.7379 30.1803L40.3157 37.5537C40.778 30.8591 51.0857 24.9331 56.1818 22.8069L55.1869 38.724L62.8996 32.6262C63.4858 38.7389 60.9044 43.2761 59.5404 44.7807C59.5404 44.7807 50.9699 38.5841 40.7389 42.2701C26.6492 47.3464 25.6143 61.3081 26.7403 68.05Z" fill="white"/>
<path fill-rule="evenodd" clip-rule="evenodd" d="M36.0077 55.1016C35.0582 58.1865 35.314 62.6664 38.228 62.6664L38.5022 60.9441C38.5022 60.9441 38.524 63.1195 38.228 63.6129C38.173 63.7045 38.1175 63.7922 38.0597 63.8836C37.806 64.2845 37.5069 64.7571 37.0071 65.9482C36.26 67.7291 37.8942 70.9872 40.6999 71.5442C41.7095 71.7447 42.5566 73.7105 42.5566 75.0753H43.9302V74.0828H44.8399V75.5686H46.9068V74.0828H47.822V75.5686H49.8889V74.0828H50.7985V75.0753H52.4796C52.4796 73.7105 53.3165 72.1113 54.295 71.7918C56.3167 71.1316 58.4461 67.7291 57.6989 65.9482C57.2267 64.8227 56.9995 64.3741 56.7446 63.8709L56.7446 63.8708L56.7446 63.8707L56.7445 63.8706C56.6682 63.7199 56.5894 63.5643 56.5008 63.3842C56.1162 62.6023 56.2266 60.9441 56.2266 60.9441L56.5008 62.6664C59.4147 62.6664 59.6706 58.1865 58.721 55.1016C57.1597 50.0277 52.5181 47.5241 47.3643 47.4583C42.2105 47.5241 37.569 50.0277 36.0077 55.1016ZM40.1823 63.1166C41.8006 62.8963 45.1558 63.1302 45.6298 65.8288C46.2224 69.2021 41.2535 68.7463 40.1823 67.903C39.1111 67.0597 38.6779 63.8917 40.1823 63.1166ZM49.4422 65.8288C49.9163 63.1302 53.2714 62.8963 54.8897 63.1166C56.3941 63.8917 55.9609 67.0597 54.8897 67.903C53.8186 68.7463 48.8496 69.2021 49.4422 65.8288ZM46.1219 67.5876C46.1984 68.833 46.3178 70.7781 47.348 71.5163C48.3781 70.7781 48.4976 68.833 48.5741 67.5876C48.5773 67.5345 48.5805 67.4827 48.5837 67.4324L47.8446 68.0947H46.8798L46.1123 67.4324C46.1155 67.4827 46.1186 67.5345 46.1219 67.5876Z" fill="white"/>
</svg>
