<svg width="1920" height="1080" viewBox="0 0 1920 1080" fill="none" xmlns="http://www.w3.org/2000/svg">
<g opacity="0.2">
<line y1="1.17896" x2="1920" y2="1.17896" stroke="#101010"/>
<line y1="2.68848" x2="1920" y2="2.68848" stroke="#101010"/>
<line y1="4.198" x2="1920" y2="4.198" stroke="#101010"/>
<line y1="5.70752" x2="1920" y2="5.70752" stroke="#101010"/>
<line y1="7.21704" x2="1920" y2="7.21704" stroke="#101010"/>
<line y1="8.72656" x2="1920" y2="8.72656" stroke="#101010"/>
<line y1="10.2361" x2="1920" y2="10.2361" stroke="#101010"/>
<line y1="11.7456" x2="1920" y2="11.7456" stroke="#101010"/>
<line y1="13.2551" x2="1920" y2="13.2551" stroke="#101010"/>
<line y1="14.7646" x2="1920" y2="14.7646" stroke="#101010"/>
<line y1="16.2742" x2="1920" y2="16.2742" stroke="#101010"/>
<line y1="17.7837" x2="1920" y2="17.7837" stroke="#101010"/>
<line y1="19.2932" x2="1920" y2="19.2932" stroke="#101010"/>
<line y1="20.8027" x2="1920" y2="20.8027" stroke="#101010"/>
<line y1="22.3123" x2="1920" y2="22.3123" stroke="#101010"/>
<line y1="23.8218" x2="1920" y2="23.8218" stroke="#101010"/>
<line y1="25.3313" x2="1920" y2="25.3313" stroke="#101010"/>
<line y1="26.8408" x2="1920" y2="26.8408" stroke="#101010"/>
<line y1="28.3503" x2="1920" y2="28.3503" stroke="#101010"/>
<line y1="29.8599" x2="1920" y2="29.8599" stroke="#101010"/>
<line y1="31.3694" x2="1920" y2="31.3694" stroke="#101010"/>
<line y1="32.8789" x2="1920" y2="32.8789" stroke="#101010"/>
<line y1="34.3884" x2="1920" y2="34.3884" stroke="#101010"/>
<line y1="35.8979" x2="1920" y2="35.8979" stroke="#101010"/>
<line y1="37.4075" x2="1920" y2="37.4075" stroke="#101010"/>
<line y1="38.917" x2="1920" y2="38.917" stroke="#101010"/>
<line y1="40.4265" x2="1920" y2="40.4265" stroke="#101010"/>
<line y1="41.936" x2="1920" y2="41.936" stroke="#101010"/>
<line y1="43.4456" x2="1920" y2="43.4456" stroke="#101010"/>
<line y1="44.9551" x2="1920" y2="44.9551" stroke="#101010"/>
<line y1="46.4646" x2="1920" y2="46.4646" stroke="#101010"/>
<line y1="47.9741" x2="1920" y2="47.9741" stroke="#101010"/>
<line y1="49.4836" x2="1920" y2="49.4836" stroke="#101010"/>
<line y1="50.9932" x2="1920" y2="50.9932" stroke="#101010"/>
<line y1="52.5027" x2="1920" y2="52.5027" stroke="#101010"/>
<line y1="54.0122" x2="1920" y2="54.0122" stroke="#101010"/>
<line y1="55.5217" x2="1920" y2="55.5217" stroke="#101010"/>
<line y1="57.0312" x2="1920" y2="57.0312" stroke="#101010"/>
<line y1="58.5408" x2="1920" y2="58.5408" stroke="#101010"/>
<line y1="60.0503" x2="1920" y2="60.0503" stroke="#101010"/>
<line y1="61.5598" x2="1920" y2="61.5598" stroke="#101010"/>
<line y1="63.0693" x2="1920" y2="63.0693" stroke="#101010"/>
<line y1="64.5789" x2="1920" y2="64.5789" stroke="#101010"/>
<line y1="66.0884" x2="1920" y2="66.0884" stroke="#101010"/>
<line y1="67.5979" x2="1920" y2="67.5979" stroke="#101010"/>
<line y1="69.1074" x2="1920" y2="69.1074" stroke="#101010"/>
<line y1="70.6169" x2="1920" y2="70.6169" stroke="#101010"/>
<line y1="72.1265" x2="1920" y2="72.1265" stroke="#101010"/>
<line y1="73.636" x2="1920" y2="73.636" stroke="#101010"/>
<line y1="75.1455" x2="1920" y2="75.1455" stroke="#101010"/>
<line y1="76.655" x2="1920" y2="76.655" stroke="#101010"/>
<line y1="78.1646" x2="1920" y2="78.1646" stroke="#101010"/>
<line y1="79.6741" x2="1920" y2="79.6741" stroke="#101010"/>
<line y1="81.1836" x2="1920" y2="81.1836" stroke="#101010"/>
<line y1="82.6931" x2="1920" y2="82.6931" stroke="#101010"/>
<line y1="84.2026" x2="1920" y2="84.2026" stroke="#101010"/>
<line y1="85.7122" x2="1920" y2="85.7122" stroke="#101010"/>
<line y1="87.2217" x2="1920" y2="87.2217" stroke="#101010"/>
<line y1="88.7312" x2="1920" y2="88.7312" stroke="#101010"/>
<line y1="90.2407" x2="1920" y2="90.2407" stroke="#101010"/>
<line y1="91.7502" x2="1920" y2="91.7502" stroke="#101010"/>
<line y1="93.2598" x2="1920" y2="93.2598" stroke="#101010"/>
<line y1="94.7693" x2="1920" y2="94.7693" stroke="#101010"/>
<line y1="96.2788" x2="1920" y2="96.2788" stroke="#101010"/>
<line y1="97.7883" x2="1920" y2="97.7883" stroke="#101010"/>
<line y1="99.2979" x2="1920" y2="99.2979" stroke="#101010"/>
<line y1="100.807" x2="1920" y2="100.807" stroke="#101010"/>
<line y1="102.317" x2="1920" y2="102.317" stroke="#101010"/>
<line y1="103.826" x2="1920" y2="103.826" stroke="#101010"/>
<line y1="105.336" x2="1920" y2="105.336" stroke="#101010"/>
<line y1="106.845" x2="1920" y2="106.845" stroke="#101010"/>
<line y1="108.355" x2="1920" y2="108.355" stroke="#101010"/>
<line y1="109.865" x2="1920" y2="109.865" stroke="#101010"/>
<line y1="111.374" x2="1920" y2="111.374" stroke="#101010"/>
<line y1="112.884" x2="1920" y2="112.884" stroke="#101010"/>
<line y1="114.393" x2="1920" y2="114.393" stroke="#101010"/>
<line y1="115.903" x2="1920" y2="115.903" stroke="#101010"/>
<line y1="117.412" x2="1920" y2="117.412" stroke="#101010"/>
<line y1="118.922" x2="1920" y2="118.922" stroke="#101010"/>
<line y1="120.431" x2="1920" y2="120.431" stroke="#101010"/>
<line y1="121.941" x2="1920" y2="121.941" stroke="#101010"/>
<line y1="123.45" x2="1920" y2="123.45" stroke="#101010"/>
<line y1="124.96" x2="1920" y2="124.96" stroke="#101010"/>
<line y1="126.469" x2="1920" y2="126.469" stroke="#101010"/>
<line y1="127.979" x2="1920" y2="127.979" stroke="#101010"/>
<line y1="129.488" x2="1920" y2="129.488" stroke="#101010"/>
<line y1="130.998" x2="1920" y2="130.998" stroke="#101010"/>
<line y1="132.507" x2="1920" y2="132.507" stroke="#101010"/>
<line y1="134.017" x2="1920" y2="134.017" stroke="#101010"/>
<line y1="135.526" x2="1920" y2="135.526" stroke="#101010"/>
<line y1="137.036" x2="1920" y2="137.036" stroke="#101010"/>
<line y1="138.545" x2="1920" y2="138.545" stroke="#101010"/>
<line y1="140.055" x2="1920" y2="140.055" stroke="#101010"/>
<line y1="141.564" x2="1920" y2="141.564" stroke="#101010"/>
<line y1="143.074" x2="1920" y2="143.074" stroke="#101010"/>
<line y1="144.583" x2="1920" y2="144.583" stroke="#101010"/>
<line y1="146.093" x2="1920" y2="146.093" stroke="#101010"/>
<line y1="147.603" x2="1920" y2="147.603" stroke="#101010"/>
<line y1="149.112" x2="1920" y2="149.112" stroke="#101010"/>
<line y1="150.622" x2="1920" y2="150.622" stroke="#101010"/>
<line y1="152.131" x2="1920" y2="152.131" stroke="#101010"/>
<line y1="153.641" x2="1920" y2="153.641" stroke="#101010"/>
<line y1="155.15" x2="1920" y2="155.15" stroke="#101010"/>
<line y1="156.66" x2="1920" y2="156.66" stroke="#101010"/>
<line y1="158.169" x2="1920" y2="158.169" stroke="#101010"/>
<line y1="159.679" x2="1920" y2="159.679" stroke="#101010"/>
<line y1="161.188" x2="1920" y2="161.188" stroke="#101010"/>
<line y1="162.698" x2="1920" y2="162.698" stroke="#101010"/>
<line y1="164.207" x2="1920" y2="164.207" stroke="#101010"/>
<line y1="165.717" x2="1920" y2="165.717" stroke="#101010"/>
<line y1="167.226" x2="1920" y2="167.226" stroke="#101010"/>
<line y1="168.736" x2="1920" y2="168.736" stroke="#101010"/>
<line y1="170.245" x2="1920" y2="170.245" stroke="#101010"/>
<line y1="171.755" x2="1920" y2="171.755" stroke="#101010"/>
<line y1="173.264" x2="1920" y2="173.264" stroke="#101010"/>
<line y1="174.774" x2="1920" y2="174.774" stroke="#101010"/>
<line y1="176.283" x2="1920" y2="176.283" stroke="#101010"/>
<line y1="177.793" x2="1920" y2="177.793" stroke="#101010"/>
<line y1="179.302" x2="1920" y2="179.302" stroke="#101010"/>
<line y1="180.812" x2="1920" y2="180.812" stroke="#101010"/>
<line y1="182.322" x2="1920" y2="182.322" stroke="#101010"/>
<line y1="183.831" x2="1920" y2="183.831" stroke="#101010"/>
<line y1="185.341" x2="1920" y2="185.341" stroke="#101010"/>
<line y1="186.85" x2="1920" y2="186.85" stroke="#101010"/>
<line y1="188.36" x2="1920" y2="188.36" stroke="#101010"/>
<line y1="189.869" x2="1920" y2="189.869" stroke="#101010"/>
<line y1="191.379" x2="1920" y2="191.379" stroke="#101010"/>
<line y1="192.888" x2="1920" y2="192.888" stroke="#101010"/>
<line y1="194.398" x2="1920" y2="194.398" stroke="#101010"/>
<line y1="195.907" x2="1920" y2="195.907" stroke="#101010"/>
<line y1="197.417" x2="1920" y2="197.417" stroke="#101010"/>
<line y1="198.926" x2="1920" y2="198.926" stroke="#101010"/>
<line y1="200.436" x2="1920" y2="200.436" stroke="#101010"/>
<line y1="201.945" x2="1920" y2="201.945" stroke="#101010"/>
<line y1="203.455" x2="1920" y2="203.455" stroke="#101010"/>
<line y1="204.964" x2="1920" y2="204.964" stroke="#101010"/>
<line y1="206.474" x2="1920" y2="206.474" stroke="#101010"/>
<line y1="207.983" x2="1920" y2="207.983" stroke="#101010"/>
<line y1="209.493" x2="1920" y2="209.493" stroke="#101010"/>
<line y1="211.002" x2="1920" y2="211.002" stroke="#101010"/>
<line y1="212.512" x2="1920" y2="212.512" stroke="#101010"/>
<line y1="214.021" x2="1920" y2="214.021" stroke="#101010"/>
<line y1="215.531" x2="1920" y2="215.531" stroke="#101010"/>
<line y1="217.041" x2="1920" y2="217.041" stroke="#101010"/>
<line y1="218.55" x2="1920" y2="218.55" stroke="#101010"/>
<line y1="220.06" x2="1920" y2="220.06" stroke="#101010"/>
<line y1="221.569" x2="1920" y2="221.569" stroke="#101010"/>
<line y1="223.079" x2="1920" y2="223.079" stroke="#101010"/>
<line y1="224.588" x2="1920" y2="224.588" stroke="#101010"/>
<line y1="226.098" x2="1920" y2="226.098" stroke="#101010"/>
<line y1="227.607" x2="1920" y2="227.607" stroke="#101010"/>
<line y1="229.117" x2="1920" y2="229.117" stroke="#101010"/>
<line y1="230.626" x2="1920" y2="230.626" stroke="#101010"/>
<line y1="232.136" x2="1920" y2="232.136" stroke="#101010"/>
<line y1="233.645" x2="1920" y2="233.645" stroke="#101010"/>
<line y1="235.155" x2="1920" y2="235.155" stroke="#101010"/>
<line y1="236.664" x2="1920" y2="236.664" stroke="#101010"/>
<line y1="238.174" x2="1920" y2="238.174" stroke="#101010"/>
<line y1="239.683" x2="1920" y2="239.683" stroke="#101010"/>
<line y1="241.193" x2="1920" y2="241.193" stroke="#101010"/>
<line y1="242.702" x2="1920" y2="242.702" stroke="#101010"/>
<line y1="244.212" x2="1920" y2="244.212" stroke="#101010"/>
<line y1="245.721" x2="1920" y2="245.721" stroke="#101010"/>
<line y1="247.231" x2="1920" y2="247.231" stroke="#101010"/>
<line y1="248.74" x2="1920" y2="248.74" stroke="#101010"/>
<line y1="250.25" x2="1920" y2="250.25" stroke="#101010"/>
<line y1="251.76" x2="1920" y2="251.76" stroke="#101010"/>
<line y1="253.269" x2="1920" y2="253.269" stroke="#101010"/>
<line y1="254.779" x2="1920" y2="254.779" stroke="#101010"/>
<line y1="256.288" x2="1920" y2="256.288" stroke="#101010"/>
<line y1="257.798" x2="1920" y2="257.798" stroke="#101010"/>
<line y1="259.307" x2="1920" y2="259.307" stroke="#101010"/>
<line y1="260.817" x2="1920" y2="260.817" stroke="#101010"/>
<line y1="262.326" x2="1920" y2="262.326" stroke="#101010"/>
<line y1="263.836" x2="1920" y2="263.836" stroke="#101010"/>
<line y1="265.345" x2="1920" y2="265.345" stroke="#101010"/>
<line y1="266.855" x2="1920" y2="266.855" stroke="#101010"/>
<line y1="268.364" x2="1920" y2="268.364" stroke="#101010"/>
<line y1="269.874" x2="1920" y2="269.874" stroke="#101010"/>
<line y1="271.383" x2="1920" y2="271.383" stroke="#101010"/>
<line y1="272.893" x2="1920" y2="272.893" stroke="#101010"/>
<line y1="274.402" x2="1920" y2="274.402" stroke="#101010"/>
<line y1="275.912" x2="1920" y2="275.912" stroke="#101010"/>
<line y1="277.421" x2="1920" y2="277.421" stroke="#101010"/>
<line y1="278.931" x2="1920" y2="278.931" stroke="#101010"/>
<line y1="280.44" x2="1920" y2="280.44" stroke="#101010"/>
<line y1="281.95" x2="1920" y2="281.95" stroke="#101010"/>
<line y1="283.459" x2="1920" y2="283.459" stroke="#101010"/>
<line y1="284.969" x2="1920" y2="284.969" stroke="#101010"/>
<line y1="286.478" x2="1920" y2="286.478" stroke="#101010"/>
<line y1="287.988" x2="1920" y2="287.988" stroke="#101010"/>
<line y1="289.497" x2="1920" y2="289.497" stroke="#101010"/>
<line y1="291.007" x2="1920" y2="291.007" stroke="#101010"/>
<line y1="292.516" x2="1920" y2="292.516" stroke="#101010"/>
<line y1="294.026" x2="1920" y2="294.026" stroke="#101010"/>
<line y1="295.536" x2="1920" y2="295.536" stroke="#101010"/>
<line y1="297.045" x2="1920" y2="297.045" stroke="#101010"/>
<line y1="298.555" x2="1920" y2="298.555" stroke="#101010"/>
<line y1="300.064" x2="1920" y2="300.064" stroke="#101010"/>
<line y1="301.574" x2="1920" y2="301.574" stroke="#101010"/>
<line y1="303.083" x2="1920" y2="303.083" stroke="#101010"/>
<line y1="304.593" x2="1920" y2="304.593" stroke="#101010"/>
<line y1="306.102" x2="1920" y2="306.102" stroke="#101010"/>
<line y1="307.612" x2="1920" y2="307.612" stroke="#101010"/>
<line y1="309.121" x2="1920" y2="309.121" stroke="#101010"/>
<line y1="310.631" x2="1920" y2="310.631" stroke="#101010"/>
<line y1="312.14" x2="1920" y2="312.14" stroke="#101010"/>
<line y1="313.65" x2="1920" y2="313.65" stroke="#101010"/>
<line y1="315.159" x2="1920" y2="315.159" stroke="#101010"/>
<line y1="316.669" x2="1920" y2="316.669" stroke="#101010"/>
<line y1="318.178" x2="1920" y2="318.178" stroke="#101010"/>
<line y1="319.688" x2="1920" y2="319.688" stroke="#101010"/>
<line y1="321.197" x2="1920" y2="321.197" stroke="#101010"/>
<line y1="322.707" x2="1920" y2="322.707" stroke="#101010"/>
<line y1="324.216" x2="1920" y2="324.216" stroke="#101010"/>
<line y1="325.726" x2="1920" y2="325.726" stroke="#101010"/>
<line y1="327.235" x2="1920" y2="327.235" stroke="#101010"/>
<line y1="328.745" x2="1920" y2="328.745" stroke="#101010"/>
<line y1="330.255" x2="1920" y2="330.255" stroke="#101010"/>
<line y1="331.764" x2="1920" y2="331.764" stroke="#101010"/>
<line y1="333.274" x2="1920" y2="333.274" stroke="#101010"/>
<line y1="334.783" x2="1920" y2="334.783" stroke="#101010"/>
<line y1="336.293" x2="1920" y2="336.293" stroke="#101010"/>
<line y1="337.802" x2="1920" y2="337.802" stroke="#101010"/>
<line y1="339.312" x2="1920" y2="339.312" stroke="#101010"/>
<line y1="340.821" x2="1920" y2="340.821" stroke="#101010"/>
<line y1="342.331" x2="1920" y2="342.331" stroke="#101010"/>
<line y1="343.84" x2="1920" y2="343.84" stroke="#101010"/>
<line y1="345.35" x2="1920" y2="345.35" stroke="#101010"/>
<line y1="346.859" x2="1920" y2="346.859" stroke="#101010"/>
<line y1="348.369" x2="1920" y2="348.369" stroke="#101010"/>
<line y1="349.878" x2="1920" y2="349.878" stroke="#101010"/>
<line y1="351.388" x2="1920" y2="351.388" stroke="#101010"/>
<line y1="352.897" x2="1920" y2="352.897" stroke="#101010"/>
<line y1="354.407" x2="1920" y2="354.407" stroke="#101010"/>
<line y1="355.916" x2="1920" y2="355.916" stroke="#101010"/>
<line y1="357.426" x2="1920" y2="357.426" stroke="#101010"/>
<line y1="358.935" x2="1920" y2="358.935" stroke="#101010"/>
<line y1="360.445" x2="1920" y2="360.445" stroke="#101010"/>
<line y1="361.954" x2="1920" y2="361.954" stroke="#101010"/>
<line y1="363.464" x2="1920" y2="363.464" stroke="#101010"/>
<line y1="364.974" x2="1920" y2="364.974" stroke="#101010"/>
<line y1="366.483" x2="1920" y2="366.483" stroke="#101010"/>
<line y1="367.993" x2="1920" y2="367.993" stroke="#101010"/>
<line y1="369.502" x2="1920" y2="369.502" stroke="#101010"/>
<line y1="371.012" x2="1920" y2="371.012" stroke="#101010"/>
<line y1="372.521" x2="1920" y2="372.521" stroke="#101010"/>
<line y1="374.031" x2="1920" y2="374.031" stroke="#101010"/>
<line y1="375.54" x2="1920" y2="375.54" stroke="#101010"/>
<line y1="377.05" x2="1920" y2="377.05" stroke="#101010"/>
<line y1="378.559" x2="1920" y2="378.559" stroke="#101010"/>
<line y1="380.069" x2="1920" y2="380.069" stroke="#101010"/>
<line y1="381.578" x2="1920" y2="381.578" stroke="#101010"/>
<line y1="383.088" x2="1920" y2="383.088" stroke="#101010"/>
<line y1="384.597" x2="1920" y2="384.597" stroke="#101010"/>
<line y1="386.107" x2="1920" y2="386.107" stroke="#101010"/>
<line y1="387.616" x2="1920" y2="387.616" stroke="#101010"/>
<line y1="389.126" x2="1920" y2="389.126" stroke="#101010"/>
<line y1="390.635" x2="1920" y2="390.635" stroke="#101010"/>
<line y1="392.145" x2="1920" y2="392.145" stroke="#101010"/>
<line y1="393.654" x2="1920" y2="393.654" stroke="#101010"/>
<line y1="395.164" x2="1920" y2="395.164" stroke="#101010"/>
<line y1="396.673" x2="1920" y2="396.673" stroke="#101010"/>
<line y1="398.183" x2="1920" y2="398.183" stroke="#101010"/>
<line y1="399.693" x2="1920" y2="399.693" stroke="#101010"/>
<line y1="401.202" x2="1920" y2="401.202" stroke="#101010"/>
<line y1="402.712" x2="1920" y2="402.712" stroke="#101010"/>
<line y1="404.221" x2="1920" y2="404.221" stroke="#101010"/>
<line y1="405.731" x2="1920" y2="405.731" stroke="#101010"/>
<line y1="407.24" x2="1920" y2="407.24" stroke="#101010"/>
<line y1="408.75" x2="1920" y2="408.75" stroke="#101010"/>
<line y1="410.259" x2="1920" y2="410.259" stroke="#101010"/>
<line y1="411.769" x2="1920" y2="411.769" stroke="#101010"/>
<line y1="413.278" x2="1920" y2="413.278" stroke="#101010"/>
<line y1="414.788" x2="1920" y2="414.788" stroke="#101010"/>
<line y1="416.297" x2="1920" y2="416.297" stroke="#101010"/>
<line y1="417.807" x2="1920" y2="417.807" stroke="#101010"/>
<line y1="419.316" x2="1920" y2="419.316" stroke="#101010"/>
<line y1="420.826" x2="1920" y2="420.826" stroke="#101010"/>
<line y1="422.335" x2="1920" y2="422.335" stroke="#101010"/>
<line y1="423.845" x2="1920" y2="423.845" stroke="#101010"/>
<line y1="425.354" x2="1920" y2="425.354" stroke="#101010"/>
<line y1="426.864" x2="1920" y2="426.864" stroke="#101010"/>
<line y1="428.373" x2="1920" y2="428.373" stroke="#101010"/>
<line y1="429.883" x2="1920" y2="429.883" stroke="#101010"/>
<line y1="431.392" x2="1920" y2="431.392" stroke="#101010"/>
<line y1="432.902" x2="1920" y2="432.902" stroke="#101010"/>
<line y1="434.411" x2="1920" y2="434.411" stroke="#101010"/>
<line y1="435.921" x2="1920" y2="435.921" stroke="#101010"/>
<line y1="437.431" x2="1920" y2="437.431" stroke="#101010"/>
<line y1="438.94" x2="1920" y2="438.94" stroke="#101010"/>
<line y1="440.45" x2="1920" y2="440.45" stroke="#101010"/>
<line y1="441.959" x2="1920" y2="441.959" stroke="#101010"/>
<line y1="443.469" x2="1920" y2="443.469" stroke="#101010"/>
<line y1="444.978" x2="1920" y2="444.978" stroke="#101010"/>
<line y1="446.488" x2="1920" y2="446.488" stroke="#101010"/>
<line y1="447.997" x2="1920" y2="447.997" stroke="#101010"/>
<line y1="449.507" x2="1920" y2="449.507" stroke="#101010"/>
<line y1="451.016" x2="1920" y2="451.016" stroke="#101010"/>
<line y1="452.526" x2="1920" y2="452.526" stroke="#101010"/>
<line y1="454.035" x2="1920" y2="454.035" stroke="#101010"/>
<line y1="455.545" x2="1920" y2="455.545" stroke="#101010"/>
<line y1="457.054" x2="1920" y2="457.054" stroke="#101010"/>
<line y1="458.564" x2="1920" y2="458.564" stroke="#101010"/>
<line y1="460.073" x2="1920" y2="460.073" stroke="#101010"/>
<line y1="461.583" x2="1920" y2="461.583" stroke="#101010"/>
<line y1="463.092" x2="1920" y2="463.092" stroke="#101010"/>
<line y1="464.602" x2="1920" y2="464.602" stroke="#101010"/>
<line y1="466.111" x2="1920" y2="466.111" stroke="#101010"/>
<line y1="467.621" x2="1920" y2="467.621" stroke="#101010"/>
<line y1="469.13" x2="1920" y2="469.13" stroke="#101010"/>
<line y1="470.64" x2="1920" y2="470.64" stroke="#101010"/>
<line y1="472.15" x2="1920" y2="472.15" stroke="#101010"/>
<line y1="473.659" x2="1920" y2="473.659" stroke="#101010"/>
<line y1="475.169" x2="1920" y2="475.169" stroke="#101010"/>
<line y1="476.678" x2="1920" y2="476.678" stroke="#101010"/>
<line y1="478.188" x2="1920" y2="478.188" stroke="#101010"/>
<line y1="479.697" x2="1920" y2="479.697" stroke="#101010"/>
<line y1="481.207" x2="1920" y2="481.207" stroke="#101010"/>
<line y1="482.716" x2="1920" y2="482.716" stroke="#101010"/>
<line y1="484.226" x2="1920" y2="484.226" stroke="#101010"/>
<line y1="485.735" x2="1920" y2="485.735" stroke="#101010"/>
<line y1="487.245" x2="1920" y2="487.245" stroke="#101010"/>
<line y1="488.754" x2="1920" y2="488.754" stroke="#101010"/>
<line y1="490.264" x2="1920" y2="490.264" stroke="#101010"/>
<line y1="491.773" x2="1920" y2="491.773" stroke="#101010"/>
<line y1="493.283" x2="1920" y2="493.283" stroke="#101010"/>
<line y1="494.792" x2="1920" y2="494.792" stroke="#101010"/>
<line y1="496.302" x2="1920" y2="496.302" stroke="#101010"/>
<line y1="497.811" x2="1920" y2="497.811" stroke="#101010"/>
<line y1="499.321" x2="1920" y2="499.321" stroke="#101010"/>
<line y1="500.83" x2="1920" y2="500.83" stroke="#101010"/>
<line y1="502.34" x2="1920" y2="502.34" stroke="#101010"/>
<line y1="503.849" x2="1920" y2="503.849" stroke="#101010"/>
<line y1="505.359" x2="1920" y2="505.359" stroke="#101010"/>
<line y1="506.869" x2="1920" y2="506.869" stroke="#101010"/>
<line y1="508.378" x2="1920" y2="508.378" stroke="#101010"/>
<line y1="509.888" x2="1920" y2="509.888" stroke="#101010"/>
<line y1="511.397" x2="1920" y2="511.397" stroke="#101010"/>
<line y1="512.907" x2="1920" y2="512.907" stroke="#101010"/>
<line y1="514.416" x2="1920" y2="514.416" stroke="#101010"/>
<line y1="515.926" x2="1920" y2="515.926" stroke="#101010"/>
<line y1="517.435" x2="1920" y2="517.435" stroke="#101010"/>
<line y1="518.945" x2="1920" y2="518.945" stroke="#101010"/>
<line y1="520.454" x2="1920" y2="520.454" stroke="#101010"/>
<line y1="521.964" x2="1920" y2="521.964" stroke="#101010"/>
<line y1="523.473" x2="1920" y2="523.473" stroke="#101010"/>
<line y1="524.983" x2="1920" y2="524.983" stroke="#101010"/>
<line y1="526.492" x2="1920" y2="526.492" stroke="#101010"/>
<line y1="528.002" x2="1920" y2="528.002" stroke="#101010"/>
<line y1="529.511" x2="1920" y2="529.511" stroke="#101010"/>
<line y1="531.021" x2="1920" y2="531.021" stroke="#101010"/>
<line y1="532.531" x2="1920" y2="532.531" stroke="#101010"/>
<line y1="534.04" x2="1920" y2="534.04" stroke="#101010"/>
<line y1="535.55" x2="1920" y2="535.55" stroke="#101010"/>
<line y1="537.059" x2="1920" y2="537.059" stroke="#101010"/>
<line y1="538.569" x2="1920" y2="538.569" stroke="#101010"/>
<line y1="540.078" x2="1920" y2="540.078" stroke="#101010"/>
<line y1="541.588" x2="1920" y2="541.588" stroke="#101010"/>
<line y1="543.097" x2="1920" y2="543.097" stroke="#101010"/>
<line y1="544.607" x2="1920" y2="544.607" stroke="#101010"/>
<line y1="546.116" x2="1920" y2="546.116" stroke="#101010"/>
<line y1="547.626" x2="1920" y2="547.626" stroke="#101010"/>
<line y1="549.135" x2="1920" y2="549.135" stroke="#101010"/>
<line y1="550.645" x2="1920" y2="550.645" stroke="#101010"/>
<line y1="552.154" x2="1920" y2="552.154" stroke="#101010"/>
<line y1="553.664" x2="1920" y2="553.664" stroke="#101010"/>
<line y1="555.173" x2="1920" y2="555.173" stroke="#101010"/>
<line y1="556.683" x2="1920" y2="556.683" stroke="#101010"/>
<line y1="558.192" x2="1920" y2="558.192" stroke="#101010"/>
<line y1="559.702" x2="1920" y2="559.702" stroke="#101010"/>
<line y1="561.211" x2="1920" y2="561.211" stroke="#101010"/>
<line y1="562.721" x2="1920" y2="562.721" stroke="#101010"/>
<line y1="564.23" x2="1920" y2="564.23" stroke="#101010"/>
<line y1="565.74" x2="1920" y2="565.74" stroke="#101010"/>
<line y1="567.25" x2="1920" y2="567.25" stroke="#101010"/>
<line y1="568.759" x2="1920" y2="568.759" stroke="#101010"/>
<line y1="570.269" x2="1920" y2="570.269" stroke="#101010"/>
<line y1="571.778" x2="1920" y2="571.778" stroke="#101010"/>
<line y1="573.288" x2="1920" y2="573.288" stroke="#101010"/>
<line y1="574.797" x2="1920" y2="574.797" stroke="#101010"/>
<line y1="576.307" x2="1920" y2="576.307" stroke="#101010"/>
<line y1="577.816" x2="1920" y2="577.816" stroke="#101010"/>
<line y1="579.326" x2="1920" y2="579.326" stroke="#101010"/>
<line y1="580.835" x2="1920" y2="580.835" stroke="#101010"/>
<line y1="582.345" x2="1920" y2="582.345" stroke="#101010"/>
<line y1="583.854" x2="1920" y2="583.854" stroke="#101010"/>
<line y1="585.364" x2="1920" y2="585.364" stroke="#101010"/>
<line y1="586.873" x2="1920" y2="586.873" stroke="#101010"/>
<line y1="588.383" x2="1920" y2="588.383" stroke="#101010"/>
<line y1="589.892" x2="1920" y2="589.892" stroke="#101010"/>
<line y1="591.402" x2="1920" y2="591.402" stroke="#101010"/>
<line y1="592.911" x2="1920" y2="592.911" stroke="#101010"/>
<line y1="594.421" x2="1920" y2="594.421" stroke="#101010"/>
<line y1="595.93" x2="1920" y2="595.93" stroke="#101010"/>
<line y1="597.44" x2="1920" y2="597.44" stroke="#101010"/>
<line y1="598.949" x2="1920" y2="598.949" stroke="#101010"/>
<line y1="600.459" x2="1920" y2="600.459" stroke="#101010"/>
<line y1="601.969" x2="1920" y2="601.969" stroke="#101010"/>
<line y1="603.478" x2="1920" y2="603.478" stroke="#101010"/>
<line y1="604.988" x2="1920" y2="604.988" stroke="#101010"/>
<line y1="606.497" x2="1920" y2="606.497" stroke="#101010"/>
<line y1="608.007" x2="1920" y2="608.007" stroke="#101010"/>
<line y1="609.516" x2="1920" y2="609.516" stroke="#101010"/>
<line y1="611.026" x2="1920" y2="611.026" stroke="#101010"/>
<line y1="612.535" x2="1920" y2="612.535" stroke="#101010"/>
<line y1="614.045" x2="1920" y2="614.045" stroke="#101010"/>
<line y1="615.554" x2="1920" y2="615.554" stroke="#101010"/>
<line y1="617.064" x2="1920" y2="617.064" stroke="#101010"/>
<line y1="618.573" x2="1920" y2="618.573" stroke="#101010"/>
<line y1="620.083" x2="1920" y2="620.083" stroke="#101010"/>
<line y1="621.592" x2="1920" y2="621.592" stroke="#101010"/>
<line y1="623.102" x2="1920" y2="623.102" stroke="#101010"/>
<line y1="624.611" x2="1920" y2="624.611" stroke="#101010"/>
<line y1="626.121" x2="1920" y2="626.121" stroke="#101010"/>
<line y1="627.63" x2="1920" y2="627.63" stroke="#101010"/>
<line y1="629.14" x2="1920" y2="629.14" stroke="#101010"/>
<line y1="630.649" x2="1920" y2="630.649" stroke="#101010"/>
<line y1="632.159" x2="1920" y2="632.159" stroke="#101010"/>
<line y1="633.668" x2="1920" y2="633.668" stroke="#101010"/>
<line y1="635.178" x2="1920" y2="635.178" stroke="#101010"/>
<line y1="636.688" x2="1920" y2="636.688" stroke="#101010"/>
<line y1="638.197" x2="1920" y2="638.197" stroke="#101010"/>
<line y1="639.707" x2="1920" y2="639.707" stroke="#101010"/>
<line y1="641.216" x2="1920" y2="641.216" stroke="#101010"/>
<line y1="642.726" x2="1920" y2="642.726" stroke="#101010"/>
<line y1="644.235" x2="1920" y2="644.235" stroke="#101010"/>
<line y1="645.745" x2="1920" y2="645.745" stroke="#101010"/>
<line y1="647.254" x2="1920" y2="647.254" stroke="#101010"/>
<line y1="648.764" x2="1920" y2="648.764" stroke="#101010"/>
<line y1="650.273" x2="1920" y2="650.273" stroke="#101010"/>
<line y1="651.783" x2="1920" y2="651.783" stroke="#101010"/>
<line y1="653.292" x2="1920" y2="653.292" stroke="#101010"/>
<line y1="654.802" x2="1920" y2="654.802" stroke="#101010"/>
<line y1="656.311" x2="1920" y2="656.311" stroke="#101010"/>
<line y1="657.821" x2="1920" y2="657.821" stroke="#101010"/>
<line y1="659.33" x2="1920" y2="659.33" stroke="#101010"/>
<line y1="660.84" x2="1920" y2="660.84" stroke="#101010"/>
<line y1="662.349" x2="1920" y2="662.349" stroke="#101010"/>
<line y1="663.859" x2="1920" y2="663.859" stroke="#101010"/>
<line y1="665.368" x2="1920" y2="665.368" stroke="#101010"/>
<line y1="666.878" x2="1920" y2="666.878" stroke="#101010"/>
<line y1="668.387" x2="1920" y2="668.387" stroke="#101010"/>
<line y1="669.897" x2="1920" y2="669.897" stroke="#101010"/>
<line y1="671.406" x2="1920" y2="671.406" stroke="#101010"/>
<line y1="672.916" x2="1920" y2="672.916" stroke="#101010"/>
<line y1="674.426" x2="1920" y2="674.426" stroke="#101010"/>
<line y1="675.935" x2="1920" y2="675.935" stroke="#101010"/>
<line y1="677.445" x2="1920" y2="677.445" stroke="#101010"/>
<line y1="678.954" x2="1920" y2="678.954" stroke="#101010"/>
<line y1="680.464" x2="1920" y2="680.464" stroke="#101010"/>
<line y1="681.973" x2="1920" y2="681.973" stroke="#101010"/>
<line y1="683.483" x2="1920" y2="683.483" stroke="#101010"/>
<line y1="684.992" x2="1920" y2="684.992" stroke="#101010"/>
<line y1="686.502" x2="1920" y2="686.502" stroke="#101010"/>
<line y1="688.011" x2="1920" y2="688.011" stroke="#101010"/>
<line y1="689.521" x2="1920" y2="689.521" stroke="#101010"/>
<line y1="691.03" x2="1920" y2="691.03" stroke="#101010"/>
<line y1="692.54" x2="1920" y2="692.54" stroke="#101010"/>
<line y1="694.049" x2="1920" y2="694.049" stroke="#101010"/>
<line y1="695.559" x2="1920" y2="695.559" stroke="#101010"/>
<line y1="697.068" x2="1920" y2="697.068" stroke="#101010"/>
<line y1="698.578" x2="1920" y2="698.578" stroke="#101010"/>
<line y1="700.087" x2="1920" y2="700.087" stroke="#101010"/>
<line y1="701.597" x2="1920" y2="701.597" stroke="#101010"/>
<line y1="703.106" x2="1920" y2="703.106" stroke="#101010"/>
<line y1="704.616" x2="1920" y2="704.616" stroke="#101010"/>
<line y1="706.125" x2="1920" y2="706.125" stroke="#101010"/>
<line y1="707.635" x2="1920" y2="707.635" stroke="#101010"/>
<line y1="709.144" x2="1920" y2="709.144" stroke="#101010"/>
<line y1="710.654" x2="1920" y2="710.654" stroke="#101010"/>
<line y1="712.164" x2="1920" y2="712.164" stroke="#101010"/>
<line y1="713.673" x2="1920" y2="713.673" stroke="#101010"/>
<line y1="715.183" x2="1920" y2="715.183" stroke="#101010"/>
<line y1="716.692" x2="1920" y2="716.692" stroke="#101010"/>
<line y1="718.202" x2="1920" y2="718.202" stroke="#101010"/>
<line y1="719.711" x2="1920" y2="719.711" stroke="#101010"/>
<line y1="721.221" x2="1920" y2="721.221" stroke="#101010"/>
<line y1="722.73" x2="1920" y2="722.73" stroke="#101010"/>
<line y1="724.24" x2="1920" y2="724.24" stroke="#101010"/>
<line y1="725.749" x2="1920" y2="725.749" stroke="#101010"/>
<line y1="727.259" x2="1920" y2="727.259" stroke="#101010"/>
<line y1="728.768" x2="1920" y2="728.768" stroke="#101010"/>
<line y1="730.278" x2="1920" y2="730.278" stroke="#101010"/>
<line y1="731.787" x2="1920" y2="731.787" stroke="#101010"/>
<line y1="733.297" x2="1920" y2="733.297" stroke="#101010"/>
<line y1="734.806" x2="1920" y2="734.806" stroke="#101010"/>
<line y1="736.316" x2="1920" y2="736.316" stroke="#101010"/>
<line y1="737.825" x2="1920" y2="737.825" stroke="#101010"/>
<line y1="739.335" x2="1920" y2="739.335" stroke="#101010"/>
<line y1="740.844" x2="1920" y2="740.844" stroke="#101010"/>
<line y1="742.354" x2="1920" y2="742.354" stroke="#101010"/>
<line y1="743.863" x2="1920" y2="743.863" stroke="#101010"/>
<line y1="745.373" x2="1920" y2="745.373" stroke="#101010"/>
<line y1="746.883" x2="1920" y2="746.883" stroke="#101010"/>
<line y1="748.392" x2="1920" y2="748.392" stroke="#101010"/>
<line y1="749.902" x2="1920" y2="749.902" stroke="#101010"/>
<line y1="751.411" x2="1920" y2="751.411" stroke="#101010"/>
<line y1="752.921" x2="1920" y2="752.921" stroke="#101010"/>
<line y1="754.43" x2="1920" y2="754.43" stroke="#101010"/>
<line y1="755.94" x2="1920" y2="755.94" stroke="#101010"/>
<line y1="757.449" x2="1920" y2="757.449" stroke="#101010"/>
<line y1="758.959" x2="1920" y2="758.959" stroke="#101010"/>
<line y1="760.468" x2="1920" y2="760.468" stroke="#101010"/>
<line y1="761.978" x2="1920" y2="761.978" stroke="#101010"/>
<line y1="763.487" x2="1920" y2="763.487" stroke="#101010"/>
<line y1="764.997" x2="1920" y2="764.997" stroke="#101010"/>
<line y1="766.506" x2="1920" y2="766.506" stroke="#101010"/>
<line y1="768.016" x2="1920" y2="768.016" stroke="#101010"/>
<line y1="769.525" x2="1920" y2="769.525" stroke="#101010"/>
<line y1="771.035" x2="1920" y2="771.035" stroke="#101010"/>
<line y1="772.544" x2="1920" y2="772.544" stroke="#101010"/>
<line y1="774.054" x2="1920" y2="774.054" stroke="#101010"/>
<line y1="775.563" x2="1920" y2="775.563" stroke="#101010"/>
<line y1="777.073" x2="1920" y2="777.073" stroke="#101010"/>
<line y1="778.582" x2="1920" y2="778.582" stroke="#101010"/>
<line y1="780.092" x2="1920" y2="780.092" stroke="#101010"/>
<line y1="781.602" x2="1920" y2="781.602" stroke="#101010"/>
<line y1="783.111" x2="1920" y2="783.111" stroke="#101010"/>
<line y1="784.621" x2="1920" y2="784.621" stroke="#101010"/>
<line y1="786.13" x2="1920" y2="786.13" stroke="#101010"/>
<line y1="787.64" x2="1920" y2="787.64" stroke="#101010"/>
<line y1="789.149" x2="1920" y2="789.149" stroke="#101010"/>
<line y1="790.659" x2="1920" y2="790.659" stroke="#101010"/>
<line y1="792.168" x2="1920" y2="792.168" stroke="#101010"/>
<line y1="793.678" x2="1920" y2="793.678" stroke="#101010"/>
<line y1="795.187" x2="1920" y2="795.187" stroke="#101010"/>
<line y1="796.697" x2="1920" y2="796.697" stroke="#101010"/>
<line y1="798.206" x2="1920" y2="798.206" stroke="#101010"/>
<line y1="799.716" x2="1920" y2="799.716" stroke="#101010"/>
<line y1="801.225" x2="1920" y2="801.225" stroke="#101010"/>
<line y1="802.735" x2="1920" y2="802.735" stroke="#101010"/>
<line y1="804.244" x2="1920" y2="804.244" stroke="#101010"/>
<line y1="805.754" x2="1920" y2="805.754" stroke="#101010"/>
<line y1="807.263" x2="1920" y2="807.263" stroke="#101010"/>
<line y1="808.773" x2="1920" y2="808.773" stroke="#101010"/>
<line y1="810.282" x2="1920" y2="810.282" stroke="#101010"/>
<line y1="811.792" x2="1920" y2="811.792" stroke="#101010"/>
<line y1="813.301" x2="1920" y2="813.301" stroke="#101010"/>
<line y1="814.811" x2="1920" y2="814.811" stroke="#101010"/>
<line y1="816.32" x2="1920" y2="816.32" stroke="#101010"/>
<line y1="817.83" x2="1920" y2="817.83" stroke="#101010"/>
<line y1="819.34" x2="1920" y2="819.34" stroke="#101010"/>
<line y1="820.849" x2="1920" y2="820.849" stroke="#101010"/>
<line y1="822.359" x2="1920" y2="822.359" stroke="#101010"/>
<line y1="823.868" x2="1920" y2="823.868" stroke="#101010"/>
<line y1="825.378" x2="1920" y2="825.378" stroke="#101010"/>
<line y1="826.887" x2="1920" y2="826.887" stroke="#101010"/>
<line y1="828.397" x2="1920" y2="828.397" stroke="#101010"/>
<line y1="829.906" x2="1920" y2="829.906" stroke="#101010"/>
<line y1="831.416" x2="1920" y2="831.416" stroke="#101010"/>
<line y1="832.925" x2="1920" y2="832.925" stroke="#101010"/>
<line y1="834.435" x2="1920" y2="834.435" stroke="#101010"/>
<line y1="835.944" x2="1920" y2="835.944" stroke="#101010"/>
<line y1="837.454" x2="1920" y2="837.454" stroke="#101010"/>
<line y1="838.963" x2="1920" y2="838.963" stroke="#101010"/>
<line y1="840.473" x2="1920" y2="840.473" stroke="#101010"/>
<line y1="841.982" x2="1920" y2="841.982" stroke="#101010"/>
<line y1="843.492" x2="1920" y2="843.492" stroke="#101010"/>
<line y1="845.001" x2="1920" y2="845.001" stroke="#101010"/>
<line y1="846.511" x2="1920" y2="846.511" stroke="#101010"/>
<line y1="848.02" x2="1920" y2="848.02" stroke="#101010"/>
<line y1="849.53" x2="1920" y2="849.53" stroke="#101010"/>
<line y1="851.039" x2="1920" y2="851.039" stroke="#101010"/>
<line y1="852.549" x2="1920" y2="852.549" stroke="#101010"/>
<line y1="854.059" x2="1920" y2="854.059" stroke="#101010"/>
<line y1="855.568" x2="1920" y2="855.568" stroke="#101010"/>
<line y1="857.078" x2="1920" y2="857.078" stroke="#101010"/>
<line y1="858.587" x2="1920" y2="858.587" stroke="#101010"/>
<line y1="860.097" x2="1920" y2="860.097" stroke="#101010"/>
<line y1="861.606" x2="1920" y2="861.606" stroke="#101010"/>
<line y1="863.116" x2="1920" y2="863.116" stroke="#101010"/>
<line y1="864.625" x2="1920" y2="864.625" stroke="#101010"/>
<line y1="866.135" x2="1920" y2="866.135" stroke="#101010"/>
<line y1="867.644" x2="1920" y2="867.644" stroke="#101010"/>
<line y1="869.154" x2="1920" y2="869.154" stroke="#101010"/>
<line y1="870.663" x2="1920" y2="870.663" stroke="#101010"/>
<line y1="872.173" x2="1920" y2="872.173" stroke="#101010"/>
<line y1="873.682" x2="1920" y2="873.682" stroke="#101010"/>
<line y1="875.192" x2="1920" y2="875.192" stroke="#101010"/>
<line y1="876.701" x2="1920" y2="876.701" stroke="#101010"/>
<line y1="878.211" x2="1920" y2="878.211" stroke="#101010"/>
<line y1="879.72" x2="1920" y2="879.72" stroke="#101010"/>
<line y1="881.23" x2="1920" y2="881.23" stroke="#101010"/>
<line y1="882.739" x2="1920" y2="882.739" stroke="#101010"/>
<line y1="884.249" x2="1920" y2="884.249" stroke="#101010"/>
<line y1="885.758" x2="1920" y2="885.758" stroke="#101010"/>
<line y1="887.268" x2="1920" y2="887.268" stroke="#101010"/>
<line y1="888.778" x2="1920" y2="888.778" stroke="#101010"/>
<line y1="890.287" x2="1920" y2="890.287" stroke="#101010"/>
<line y1="891.797" x2="1920" y2="891.797" stroke="#101010"/>
<line y1="893.306" x2="1920" y2="893.306" stroke="#101010"/>
<line y1="894.816" x2="1920" y2="894.816" stroke="#101010"/>
<line y1="896.325" x2="1920" y2="896.325" stroke="#101010"/>
<line y1="897.835" x2="1920" y2="897.835" stroke="#101010"/>
<line y1="899.344" x2="1920" y2="899.344" stroke="#101010"/>
<line y1="900.854" x2="1920" y2="900.854" stroke="#101010"/>
<line y1="902.363" x2="1920" y2="902.363" stroke="#101010"/>
<line y1="903.873" x2="1920" y2="903.873" stroke="#101010"/>
<line y1="905.382" x2="1920" y2="905.382" stroke="#101010"/>
<line y1="906.892" x2="1920" y2="906.892" stroke="#101010"/>
<line y1="908.401" x2="1920" y2="908.401" stroke="#101010"/>
<line y1="909.911" x2="1920" y2="909.911" stroke="#101010"/>
<line y1="911.42" x2="1920" y2="911.42" stroke="#101010"/>
<line y1="912.93" x2="1920" y2="912.93" stroke="#101010"/>
<line y1="914.439" x2="1920" y2="914.439" stroke="#101010"/>
<line y1="915.949" x2="1920" y2="915.949" stroke="#101010"/>
<line y1="917.458" x2="1920" y2="917.458" stroke="#101010"/>
<line y1="918.968" x2="1920" y2="918.968" stroke="#101010"/>
<line y1="920.477" x2="1920" y2="920.477" stroke="#101010"/>
<line y1="921.987" x2="1920" y2="921.987" stroke="#101010"/>
<line y1="923.497" x2="1920" y2="923.497" stroke="#101010"/>
<line y1="925.006" x2="1920" y2="925.006" stroke="#101010"/>
<line y1="926.516" x2="1920" y2="926.516" stroke="#101010"/>
<line y1="928.025" x2="1920" y2="928.025" stroke="#101010"/>
<line y1="929.535" x2="1920" y2="929.535" stroke="#101010"/>
<line y1="931.044" x2="1920" y2="931.044" stroke="#101010"/>
<line y1="932.554" x2="1920" y2="932.554" stroke="#101010"/>
<line y1="934.063" x2="1920" y2="934.063" stroke="#101010"/>
<line y1="935.573" x2="1920" y2="935.573" stroke="#101010"/>
<line y1="937.082" x2="1920" y2="937.082" stroke="#101010"/>
<line y1="938.592" x2="1920" y2="938.592" stroke="#101010"/>
<line y1="940.101" x2="1920" y2="940.101" stroke="#101010"/>
<line y1="941.611" x2="1920" y2="941.611" stroke="#101010"/>
<line y1="943.12" x2="1920" y2="943.12" stroke="#101010"/>
<line y1="944.63" x2="1920" y2="944.63" stroke="#101010"/>
<line y1="946.139" x2="1920" y2="946.139" stroke="#101010"/>
<line y1="947.649" x2="1920" y2="947.649" stroke="#101010"/>
<line y1="949.158" x2="1920" y2="949.158" stroke="#101010"/>
<line y1="950.668" x2="1920" y2="950.668" stroke="#101010"/>
<line y1="952.177" x2="1920" y2="952.177" stroke="#101010"/>
<line y1="953.687" x2="1920" y2="953.687" stroke="#101010"/>
<line y1="955.196" x2="1920" y2="955.196" stroke="#101010"/>
<line y1="956.706" x2="1920" y2="956.706" stroke="#101010"/>
<line y1="958.216" x2="1920" y2="958.216" stroke="#101010"/>
<line y1="959.725" x2="1920" y2="959.725" stroke="#101010"/>
<line y1="961.235" x2="1920" y2="961.235" stroke="#101010"/>
<line y1="962.744" x2="1920" y2="962.744" stroke="#101010"/>
<line y1="964.254" x2="1920" y2="964.254" stroke="#101010"/>
<line y1="965.763" x2="1920" y2="965.763" stroke="#101010"/>
<line y1="967.273" x2="1920" y2="967.273" stroke="#101010"/>
<line y1="968.782" x2="1920" y2="968.782" stroke="#101010"/>
<line y1="970.292" x2="1920" y2="970.292" stroke="#101010"/>
<line y1="971.801" x2="1920" y2="971.801" stroke="#101010"/>
<line y1="973.311" x2="1920" y2="973.311" stroke="#101010"/>
<line y1="974.82" x2="1920" y2="974.82" stroke="#101010"/>
<line y1="976.33" x2="1920" y2="976.33" stroke="#101010"/>
<line y1="977.839" x2="1920" y2="977.839" stroke="#101010"/>
<line y1="979.349" x2="1920" y2="979.349" stroke="#101010"/>
<line y1="980.858" x2="1920" y2="980.858" stroke="#101010"/>
<line y1="982.368" x2="1920" y2="982.368" stroke="#101010"/>
<line y1="983.877" x2="1920" y2="983.877" stroke="#101010"/>
<line y1="985.387" x2="1920" y2="985.387" stroke="#101010"/>
<line y1="986.896" x2="1920" y2="986.896" stroke="#101010"/>
<line y1="988.406" x2="1920" y2="988.406" stroke="#101010"/>
<line y1="989.915" x2="1920" y2="989.915" stroke="#101010"/>
<line y1="991.425" x2="1920" y2="991.425" stroke="#101010"/>
<line y1="992.935" x2="1920" y2="992.935" stroke="#101010"/>
<line y1="994.444" x2="1920" y2="994.444" stroke="#101010"/>
<line y1="995.954" x2="1920" y2="995.954" stroke="#101010"/>
<line y1="997.463" x2="1920" y2="997.463" stroke="#101010"/>
<line y1="998.973" x2="1920" y2="998.973" stroke="#101010"/>
<line y1="1000.48" x2="1920" y2="1000.48" stroke="#101010"/>
<line y1="1001.99" x2="1920" y2="1001.99" stroke="#101010"/>
<line y1="1003.5" x2="1920" y2="1003.5" stroke="#101010"/>
<line y1="1005.01" x2="1920" y2="1005.01" stroke="#101010"/>
<line y1="1006.52" x2="1920" y2="1006.52" stroke="#101010"/>
<line y1="1008.03" x2="1920" y2="1008.03" stroke="#101010"/>
<line y1="1009.54" x2="1920" y2="1009.54" stroke="#101010"/>
<line y1="1011.05" x2="1920" y2="1011.05" stroke="#101010"/>
<line y1="1012.56" x2="1920" y2="1012.56" stroke="#101010"/>
<line y1="1014.07" x2="1920" y2="1014.07" stroke="#101010"/>
<line y1="1015.58" x2="1920" y2="1015.58" stroke="#101010"/>
<line y1="1017.09" x2="1920" y2="1017.09" stroke="#101010"/>
<line y1="1018.6" x2="1920" y2="1018.6" stroke="#101010"/>
<line y1="1020.11" x2="1920" y2="1020.11" stroke="#101010"/>
<line y1="1021.62" x2="1920" y2="1021.62" stroke="#101010"/>
<line y1="1023.12" x2="1920" y2="1023.12" stroke="#101010"/>
<line y1="1024.63" x2="1920" y2="1024.63" stroke="#101010"/>
<line y1="1026.14" x2="1920" y2="1026.14" stroke="#101010"/>
<line y1="1027.65" x2="1920" y2="1027.65" stroke="#101010"/>
<line y1="1029.16" x2="1920" y2="1029.16" stroke="#101010"/>
<line y1="1030.67" x2="1920" y2="1030.67" stroke="#101010"/>
<line y1="1032.18" x2="1920" y2="1032.18" stroke="#101010"/>
<line y1="1033.69" x2="1920" y2="1033.69" stroke="#101010"/>
<line y1="1035.2" x2="1920" y2="1035.2" stroke="#101010"/>
<line y1="1036.71" x2="1920" y2="1036.71" stroke="#101010"/>
<line y1="1038.22" x2="1920" y2="1038.22" stroke="#101010"/>
<line y1="1039.73" x2="1920" y2="1039.73" stroke="#101010"/>
<line y1="1041.24" x2="1920" y2="1041.24" stroke="#101010"/>
<line y1="1042.75" x2="1920" y2="1042.75" stroke="#101010"/>
<line y1="1044.26" x2="1920" y2="1044.26" stroke="#101010"/>
<line y1="1045.77" x2="1920" y2="1045.77" stroke="#101010"/>
<line y1="1047.28" x2="1920" y2="1047.28" stroke="#101010"/>
<line y1="1048.79" x2="1920" y2="1048.79" stroke="#101010"/>
<line y1="1050.3" x2="1920" y2="1050.3" stroke="#101010"/>
<line y1="1051.81" x2="1920" y2="1051.81" stroke="#101010"/>
<line y1="1053.32" x2="1920" y2="1053.32" stroke="#101010"/>
<line y1="1054.82" x2="1920" y2="1054.82" stroke="#101010"/>
<line y1="1056.33" x2="1920" y2="1056.33" stroke="#101010"/>
<line y1="1057.84" x2="1920" y2="1057.84" stroke="#101010"/>
<line y1="1059.35" x2="1920" y2="1059.35" stroke="#101010"/>
<line y1="1060.86" x2="1920" y2="1060.86" stroke="#101010"/>
<line y1="1062.37" x2="1920" y2="1062.37" stroke="#101010"/>
<line y1="1063.88" x2="1920" y2="1063.88" stroke="#101010"/>
<line y1="1065.39" x2="1920" y2="1065.39" stroke="#101010"/>
<line y1="1066.9" x2="1920" y2="1066.9" stroke="#101010"/>
<line y1="1068.41" x2="1920" y2="1068.41" stroke="#101010"/>
<line y1="1069.92" x2="1920" y2="1069.92" stroke="#101010"/>
<line y1="1071.43" x2="1920" y2="1071.43" stroke="#101010"/>
<line y1="1072.94" x2="1920" y2="1072.94" stroke="#101010"/>
<line y1="1074.45" x2="1920" y2="1074.45" stroke="#101010"/>
<line y1="1075.96" x2="1920" y2="1075.96" stroke="#101010"/>
<line y1="1077.47" x2="1920" y2="1077.47" stroke="#101010"/>
<line y1="1078.98" x2="1920" y2="1078.98" stroke="#101010"/>
</g>
</svg>
