<svg width="98" height="66" viewBox="0 0 98 66" fill="none" xmlns="http://www.w3.org/2000/svg">
<path d="M33.3953 23.8441H37.0754V42.1558H33.3953V23.8441ZM26.0324 38.4938L11.3077 38.4929V42.1558H29.7131V23.8441H11.3077V27.5062H26.0324V38.4938ZM44.4377 27.5062H59.1631V23.8441H40.7567V42.1558H59.1631V38.4929L44.4377 38.4938V27.5062ZM81.2483 23.8441H62.8437V27.5057H81.2483V23.8441ZM81.2483 31.1691H62.8437V34.831H81.2483V31.1691ZM81.2483 38.4938H62.8437V42.1558H81.2483V38.4938ZM83.0903 23.8441H84.5768V24.1186H83.9935V25.6756H83.6707V24.1186H83.0903V23.8441ZM84.7858 23.8441H85.2391L85.7456 25.2767H85.7531L86.2461 23.8441H86.6923V25.6755H86.3888V24.2604H86.3817L85.871 25.6755H85.6086L85.0973 24.2604H85.0917V25.6755H84.7858V23.8441Z" fill="white"/>
</svg>
