<svg width="52" height="52" viewBox="0 0 52 52" fill="none" xmlns="http://www.w3.org/2000/svg">
<g clip-path="url(#clip0_1_34)">
<path d="M26.0003 -3.05176e-05C11.664 -3.05176e-05 0.000610352 11.6635 0.000610352 26.0001C0.000610352 40.3367 11.664 52 26.0003 52C40.3367 52 52 40.3367 52 26.0001C52.0001 11.6635 40.3367 -3.05176e-05 26.0003 -3.05176e-05ZM26.0003 48.6325C13.5208 48.6325 3.36813 38.4796 3.36813 26.0001C3.36813 13.5203 13.5208 3.36749 26.0003 3.36749C38.4796 3.36749 48.6325 13.5204 48.6325 26.0001C48.6325 38.4795 38.4797 48.6325 26.0003 48.6325ZM34.8334 18.4163H35.0386V17.4225H35.4084V17.247H34.4645V17.4225H34.8335L34.8334 18.4163ZM35.7358 17.5128H35.7395L36.0639 18.4163H36.231L36.5553 17.5128H36.5599V18.4163H36.7525V17.247H36.4693L36.1558 18.1616H36.1504L35.8294 17.247H35.5416V18.4163H35.7358V17.5128H35.7358ZM29.831 17.246H17.0404L15.0997 20.3648H27.8755L29.831 17.246ZM32.4449 17.2757L24.6257 29.7264H15.9524L17.9534 26.605H23.1518L25.1375 23.4851H13.1198L11.1345 26.605H13.9815L10.0314 32.8371H26.5162L32.605 23.2347L34.825 26.605H32.8232L30.9274 29.7264H36.8553L38.9137 32.8371H42.6951L32.4449 17.2757Z" fill="white"/>
</g>
<defs>
<clipPath id="clip0_1_34">
<rect width="52" height="52" fill="white"/>
</clipPath>
</defs>
</svg>
