<svg width="17" height="13" viewBox="0 0 17 13" fill="none" xmlns="http://www.w3.org/2000/svg">
<path d="M16.458 0.273071H0.458496V12.1706H16.458V0.273071Z" fill="white"/>
<path d="M16.4456 0.22937H0.459473V1.1705H16.4456V0.22937Z" fill="#B22234"/>
<path d="M16.4446 2.07019H0.458496V3.01132H16.4446V2.07019Z" fill="#B22234"/>
<path d="M16.4446 3.91101H0.458496V4.85214H16.4446V3.91101Z" fill="#B22234"/>
<path d="M16.4446 5.75208H0.458496V6.6932H16.4446V5.75208Z" fill="#B22234"/>
<path d="M16.4446 7.59277H0.458496V8.5339H16.4446V7.59277Z" fill="#B22234"/>
<path d="M16.4446 9.43384H0.458496V10.375H16.4446V9.43384Z" fill="#B22234"/>
<path d="M16.4446 11.2747H0.458496V12.2158H16.4446V11.2747Z" fill="#B22234"/>
<path d="M9.06793 0.229126H0.458008V6.69337H9.06793V0.229126Z" fill="#3C3B6E"/>
<path d="M1.19043 0.476562L1.27099 0.740498H1.53175L1.32076 0.903517L1.40142 1.16745L1.19043 1.00432L0.979553 1.16745L1.06011 0.903517L0.849121 0.740498H1.10988L1.19043 0.476562Z" fill="white"/>
<path d="M1.89942 1.13989L1.97998 1.40383H2.24073L2.02985 1.56696L2.11041 1.83078L1.89942 1.66776L1.68854 1.83078L1.7691 1.56696L1.55811 1.40383H1.81886L1.89942 1.13989Z" fill="white"/>
<path d="M1.89942 2.43591L1.97998 2.69973H2.24073L2.02985 2.86287L2.11041 3.12669L1.89942 2.96367L1.68854 3.12669L1.7691 2.86287L1.55811 2.69973H1.81886L1.89942 2.43591Z" fill="white"/>
<path d="M1.89942 3.73193L1.97998 3.99575H2.24073L2.02985 4.15889L2.11041 4.42271L1.89942 4.25969L1.68854 4.42271L1.7691 4.15889L1.55811 3.99575H1.81886L1.89942 3.73193Z" fill="white"/>
<path d="M1.89942 5.02771L1.97998 5.29153H2.24073L2.02985 5.45466L2.11041 5.71848L1.89942 5.55547L1.68854 5.71848L1.7691 5.45466L1.55811 5.29153H1.81886L1.89942 5.02771Z" fill="white"/>
<path d="M3.33838 1.13989L3.41894 1.40383H3.6797L3.46882 1.56696L3.54937 1.83078L3.33838 1.66776L3.1275 1.83078L3.20806 1.56696L2.99707 1.40383H3.25783L3.33838 1.13989Z" fill="white"/>
<path d="M3.33838 2.43591L3.41894 2.69973H3.6797L3.46882 2.86287L3.54937 3.12669L3.33838 2.96367L3.1275 3.12669L3.20806 2.86287L2.99707 2.69973H3.25783L3.33838 2.43591Z" fill="white"/>
<path d="M3.33838 3.73193L3.41894 3.99575H3.6797L3.46882 4.15889L3.54937 4.42271L3.33838 4.25969L3.1275 4.42271L3.20806 4.15889L2.99707 3.99575H3.25783L3.33838 3.73193Z" fill="white"/>
<path d="M3.33838 5.02771L3.41894 5.29153H3.6797L3.46882 5.45466L3.54937 5.71848L3.33838 5.55547L3.1275 5.71848L3.20806 5.45466L2.99707 5.29153H3.25783L3.33838 5.02771Z" fill="white"/>
<path d="M4.77686 1.13989L4.85742 1.40383H5.11817L4.90729 1.56696L4.98785 1.83078L4.77686 1.66776L4.56598 1.83078L4.64654 1.56696L4.43555 1.40383H4.6963L4.77686 1.13989Z" fill="white"/>
<path d="M4.77686 2.43591L4.85742 2.69973H5.11817L4.90729 2.86287L4.98785 3.12669L4.77686 2.96367L4.56598 3.12669L4.64654 2.86287L4.43555 2.69973H4.6963L4.77686 2.43591Z" fill="white"/>
<path d="M4.77686 3.73193L4.85742 3.99575H5.11817L4.90729 4.15889L4.98785 4.42271L4.77686 4.25969L4.56598 4.42271L4.64654 4.15889L4.43555 3.99575H4.6963L4.77686 3.73193Z" fill="white"/>
<path d="M4.77686 5.02771L4.85742 5.29153H5.11817L4.90729 5.45466L4.98785 5.71848L4.77686 5.55547L4.56598 5.71848L4.64654 5.45466L4.43555 5.29153H4.6963L4.77686 5.02771Z" fill="white"/>
<path d="M6.21485 1.13989L6.29551 1.40383H6.55627L6.34528 1.56696L6.42584 1.83078L6.21485 1.66776L6.00397 1.83078L6.08452 1.56696L5.87354 1.40383H6.13429L6.21485 1.13989Z" fill="white"/>
<path d="M6.21485 2.43591L6.29551 2.69973H6.55627L6.34528 2.86287L6.42584 3.12669L6.21485 2.96367L6.00397 3.12669L6.08452 2.86287L5.87354 2.69973H6.13429L6.21485 2.43591Z" fill="white"/>
<path d="M6.21485 3.73193L6.29551 3.99575H6.55627L6.34528 4.15889L6.42584 4.42271L6.21485 4.25969L6.00397 4.42271L6.08452 4.15889L5.87354 3.99575H6.13429L6.21485 3.73193Z" fill="white"/>
<path d="M6.21485 5.02771L6.29551 5.29153H6.55627L6.34528 5.45466L6.42584 5.71848L6.21485 5.55547L6.00397 5.71848L6.08452 5.45466L5.87354 5.29153H6.13429L6.21485 5.02771Z" fill="white"/>
<path d="M7.6537 1.13989L7.73437 1.40383H7.99502L7.78414 1.56696L7.86469 1.83078L7.6537 1.66776L7.44282 1.83078L7.52338 1.56696L7.3125 1.40383H7.57326L7.6537 1.13989Z" fill="white"/>
<path d="M7.6537 2.43591L7.73437 2.69973H7.99502L7.78414 2.86287L7.86469 3.12669L7.6537 2.96367L7.44282 3.12669L7.52338 2.86287L7.3125 2.69973H7.57326L7.6537 2.43591Z" fill="white"/>
<path d="M7.6537 3.73193L7.73437 3.99575H7.99502L7.78414 4.15889L7.86469 4.42271L7.6537 4.25969L7.44282 4.42271L7.52338 4.15889L7.3125 3.99575H7.57326L7.6537 3.73193Z" fill="white"/>
<path d="M7.6537 5.02771L7.73437 5.29153H7.99502L7.78414 5.45466L7.86469 5.71848L7.6537 5.55547L7.44282 5.71848L7.52338 5.45466L7.3125 5.29153H7.57326L7.6537 5.02771Z" fill="white"/>
<path d="M1.19043 1.77271L1.27099 2.03653H1.53175L1.32076 2.19954L1.40142 2.46348L1.19043 2.30035L0.979553 2.46348L1.06011 2.19954L0.849121 2.03653H1.10988L1.19043 1.77271Z" fill="white"/>
<path d="M1.19043 3.0686L1.27099 3.33242H1.53175L1.32076 3.49556L1.40142 3.75938L1.19043 3.59624L0.979553 3.75938L1.06011 3.49556L0.849121 3.33242H1.10988L1.19043 3.0686Z" fill="white"/>
<path d="M1.19043 4.3645L1.27099 4.62832H1.53175L1.32076 4.79146L1.40142 5.05528L1.19043 4.89226L0.979553 5.05528L1.06011 4.79146L0.849121 4.62832H1.10988L1.19043 4.3645Z" fill="white"/>
<path d="M1.19043 5.6604L1.27099 5.92422H1.53175L1.32076 6.08736L1.40142 6.35118L1.19043 6.18816L0.979553 6.35118L1.06011 6.08736L0.849121 5.92422H1.10988L1.19043 5.6604Z" fill="white"/>
<path d="M2.60938 0.476562L2.68994 0.740498H2.95069L2.73981 0.903517L2.82037 1.16745L2.60938 1.00432L2.3985 1.16745L2.47906 0.903517L2.26807 0.740498H2.52882L2.60938 0.476562Z" fill="white"/>
<path d="M2.60938 1.77271L2.68994 2.03653H2.95069L2.73981 2.19954L2.82037 2.46348L2.60938 2.30035L2.3985 2.46348L2.47906 2.19954L2.26807 2.03653H2.52882L2.60938 1.77271Z" fill="white"/>
<path d="M2.60938 3.0686L2.68994 3.33242H2.95069L2.73981 3.49556L2.82037 3.75938L2.60938 3.59624L2.3985 3.75938L2.47906 3.49556L2.26807 3.33242H2.52882L2.60938 3.0686Z" fill="white"/>
<path d="M2.60938 4.3645L2.68994 4.62832H2.95069L2.73981 4.79146L2.82037 5.05528L2.60938 4.89226L2.3985 5.05528L2.47906 4.79146L2.26807 4.62832H2.52882L2.60938 4.3645Z" fill="white"/>
<path d="M2.60938 5.6604L2.68994 5.92422H2.95069L2.73981 6.08736L2.82037 6.35118L2.60938 6.18816L2.3985 6.35118L2.47906 6.08736L2.26807 5.92422H2.52882L2.60938 5.6604Z" fill="white"/>
<path d="M4.0669 0.476562L4.14746 0.740498H4.40821L4.19733 0.903517L4.27789 1.16745L4.0669 1.00432L3.85602 1.16745L3.93658 0.903517L3.72559 0.740498H3.98634L4.0669 0.476562Z" fill="white"/>
<path d="M4.0669 1.77271L4.14746 2.03653H4.40821L4.19733 2.19954L4.27789 2.46348L4.0669 2.30035L3.85602 2.46348L3.93658 2.19954L3.72559 2.03653H3.98634L4.0669 1.77271Z" fill="white"/>
<path d="M4.0669 3.0686L4.14746 3.33242H4.40821L4.19733 3.49556L4.27789 3.75938L4.0669 3.59624L3.85602 3.75938L3.93658 3.49556L3.72559 3.33242H3.98634L4.0669 3.0686Z" fill="white"/>
<path d="M4.0669 4.3645L4.14746 4.62832H4.40821L4.19733 4.79146L4.27789 5.05528L4.0669 4.89226L3.85602 5.05528L3.93658 4.79146L3.72559 4.62832H3.98634L4.0669 4.3645Z" fill="white"/>
<path d="M4.0669 5.6604L4.14746 5.92422H4.40821L4.19733 6.08736L4.27789 6.35118L4.0669 6.18816L3.85602 6.35118L3.93658 6.08736L3.72559 5.92422H3.98634L4.0669 5.6604Z" fill="white"/>
<path d="M5.4961 0.476562L5.57666 0.740498H5.83741L5.62642 0.903517L5.70698 1.16745L5.4961 1.00432L5.28511 1.16745L5.36567 0.903517L5.15479 0.740498H5.41554L5.4961 0.476562Z" fill="white"/>
<path d="M5.4961 1.77271L5.57666 2.03653H5.83741L5.62642 2.19954L5.70698 2.46348L5.4961 2.30035L5.28511 2.46348L5.36567 2.19954L5.15479 2.03653H5.41554L5.4961 1.77271Z" fill="white"/>
<path d="M5.4961 3.0686L5.57666 3.33242H5.83741L5.62642 3.49556L5.70698 3.75938L5.4961 3.59624L5.28511 3.75938L5.36567 3.49556L5.15479 3.33242H5.41554L5.4961 3.0686Z" fill="white"/>
<path d="M5.4961 4.3645L5.57666 4.62832H5.83741L5.62642 4.79146L5.70698 5.05528L5.4961 4.89226L5.28511 5.05528L5.36567 4.79146L5.15479 4.62832H5.41554L5.4961 4.3645Z" fill="white"/>
<path d="M5.4961 5.6604L5.57666 5.92422H5.83741L5.62642 6.08736L5.70698 6.35118L5.4961 6.18816L5.28511 6.35118L5.36567 6.08736L5.15479 5.92422H5.41554L5.4961 5.6604Z" fill="white"/>
<path d="M6.92481 0.476562L7.00537 0.740498H7.26612L7.05513 0.903517L7.13569 1.16745L6.92481 1.00432L6.71382 1.16745L6.79438 0.903517L6.5835 0.740498H6.84414L6.92481 0.476562Z" fill="white"/>
<path d="M6.92481 1.77271L7.00537 2.03653H7.26612L7.05513 2.19954L7.13569 2.46348L6.92481 2.30035L6.71382 2.46348L6.79438 2.19954L6.5835 2.03653H6.84414L6.92481 1.77271Z" fill="white"/>
<path d="M6.92481 3.0686L7.00537 3.33242H7.26612L7.05513 3.49556L7.13569 3.75938L6.92481 3.59624L6.71382 3.75938L6.79438 3.49556L6.5835 3.33242H6.84414L6.92481 3.0686Z" fill="white"/>
<path d="M6.92481 4.3645L7.00537 4.62832H7.26612L7.05513 4.79146L7.13569 5.05528L6.92481 4.89226L6.71382 5.05528L6.79438 4.79146L6.5835 4.62832H6.84414L6.92481 4.3645Z" fill="white"/>
<path d="M6.92481 5.6604L7.00537 5.92422H7.26612L7.05513 6.08736L7.13569 6.35118L6.92481 6.18816L6.71382 6.35118L6.79438 6.08736L6.5835 5.92422H6.84414L6.92481 5.6604Z" fill="white"/>
<path d="M8.38233 0.476562L8.463 0.740498H8.72375L8.51276 0.903517L8.59332 1.16745L8.38233 1.00432L8.17145 1.16745L8.25201 0.903517L8.04102 0.740498H8.30177L8.38233 0.476562Z" fill="white"/>
<path d="M8.38233 1.77271L8.463 2.03653H8.72375L8.51276 2.19954L8.59332 2.46348L8.38233 2.30035L8.17145 2.46348L8.25201 2.19954L8.04102 2.03653H8.30177L8.38233 1.77271Z" fill="white"/>
<path d="M8.38233 3.0686L8.463 3.33242H8.72375L8.51276 3.49556L8.59332 3.75938L8.38233 3.59624L8.17145 3.75938L8.25201 3.49556L8.04102 3.33242H8.30177L8.38233 3.0686Z" fill="white"/>
<path d="M8.38233 4.3645L8.463 4.62832H8.72375L8.51276 4.79146L8.59332 5.05528L8.38233 4.89226L8.17145 5.05528L8.25201 4.79146L8.04102 4.62832H8.30177L8.38233 4.3645Z" fill="white"/>
<path d="M8.38233 5.6604L8.463 5.92422H8.72375L8.51276 6.08736L8.59332 6.35118L8.38233 6.18816L8.17145 6.35118L8.25201 6.08736L8.04102 5.92422H8.30177L8.38233 5.6604Z" fill="white"/>
</svg>
