<svg width="17" height="13" viewBox="0 0 17 13" fill="none" xmlns="http://www.w3.org/2000/svg">
<path d="M16.4533 12.7958H0.458008V0.767001H16.4533V12.7958Z" fill="white"/>
<path d="M16.4551 7.98249H9.41215V12.7949H7.48965V7.98249H0.465332V5.57754H7.48965V0.767064H9.41215V5.57754H16.4551V7.98249Z" fill="#CE1124"/>
<path d="M0.458496 11.3954V8.7763H3.94726L0.458496 11.3954Z" fill="#00247D"/>
<path d="M2.38317 12.7965L2.33203 12.7932L6.85577 9.37929V12.7965H2.38317Z" fill="#00247D"/>
<path d="M5.82682 8.79273L0.458008 12.7958V11.8522L4.54751 8.79273H5.82682Z" fill="#CE1124"/>
<path d="M11.0884 4.77148L16.4573 0.768435V1.71196L12.3678 4.77148H11.0884Z" fill="#CE1124"/>
<path d="M0.458496 2.14886V4.76794H3.94726L0.458496 2.14886Z" fill="#00247D"/>
<path d="M2.38317 0.747698L2.33203 0.751026L6.85577 4.16492V0.747698H2.38317Z" fill="#00247D"/>
<path d="M5.80026 4.77173L0.462402 0.770515L1.71076 0.768794L6.86137 4.609V4.77173H5.80026Z" fill="#CE1124"/>
<path d="M16.4575 11.396V8.77702H12.9688L16.4575 11.396Z" fill="#00247D"/>
<path d="M14.5327 12.7971L14.5838 12.7938L10.0601 9.3799V12.7971H14.5327Z" fill="#00247D"/>
<path d="M16.4521 12.7915L15.2513 12.7916L10.0645 8.92433V8.78869H11.1618L16.4521 12.7915Z" fill="#CE1124"/>
<path d="M16.4575 2.14995V4.76892H12.9688L16.4575 2.14995Z" fill="#00247D"/>
<path d="M14.5327 0.748676L14.5838 0.75189L10.0601 4.16589V0.748676H14.5327Z" fill="#00247D"/>
</svg>
